<svg xmlns="http://www.w3.org/2000/svg" width="107.968" height="107.968" viewBox="0 0 107.968 107.968">
    <defs>
        <style>
            .cls-3{fill:#fff}
        </style>
    </defs>
    <g id="FW_logo" transform="translate(-69.866 -69.866)">
        <rect id="Rectangle_1" width="105.968" height="105.968" fill="none" stroke="#fff" stroke-width="2px" opacity="0.289" rx="10.597" transform="translate(70.866 70.866)"/>
        <g id="Group_3">
            <g id="Group_1" opacity="0.396">
                <path id="Path_1" d="M89.185 156.117a1.346 1.346 0 0 1-1.464 1.065 1.4 1.4 0 0 1-1.487-1.087l-4.192-15.261a1.755 1.755 0 0 1-.044-.311c0-.51.421-.776.931-.865a1.471 1.471 0 0 1 .31-.022.9.9 0 0 1 .954.71l2.773 10.47c.311 1.176.6 1.726.8 2.858a29.194 29.194 0 0 1 .82-2.836l2.64-10.226a1.3 1.3 0 0 1 1.442-.976 1.273 1.273 0 0 1 1.4 1L96.7 150.86a29.222 29.222 0 0 1 .776 2.836c.223-1.2.555-1.727.843-2.813l2.795-10.537a.931.931 0 0 1 1-.71 1.272 1.272 0 0 1 .288.022c.51.089.932.355.932.843a1.112 1.112 0 0 1-.044.266l-4.349 15.35a1.387 1.387 0 0 1-1.486 1.065 1.357 1.357 0 0 1-1.464-1.087l-2.528-9.96a25.112 25.112 0 0 1-.8-2.716c-.222 1.221-.488 1.3-.843 2.672z" class="cls-3"/>
                <path id="Path_2" d="M117.648 140.545c0-.621.466-.909 1.109-.909.577 0 1.021.288 1.021.909v15.728a.905.905 0 0 1-1.021.909c-.643 0-1.109-.31-1.109-.909v-7.343H108.2v7.343c0 .6-.465.909-1.064.909-.621 0-1.065-.31-1.065-.909v-15.728c0-.621.444-.909 1.065-.909.6 0 1.064.288 1.064.909V147h9.45z" class="cls-3"/>
                <path id="Path_3" d="M125.726 154.409c0 .511.332.71.82.71h7.941a.858.858 0 0 1 .888.954.886.886 0 0 1-.888.976H125.9c-1.575 0-2.263-.688-2.263-2.373v-12.511c0-1.708.688-2.4 2.263-2.4h8.385a.857.857 0 0 1 .887.954.875.875 0 0 1-.887.976h-7.805c-.533 0-.754.244-.754.776v4.592h7.564a.852.852 0 0 1 .865.954.87.87 0 0 1-.865.932h-7.564z" class="cls-3"/>
                <path id="Path_4" d="M151.171 155.874a1.129 1.129 0 0 1 .066.376.894.894 0 0 1-.732.866 1.862 1.862 0 0 1-.488.066.876.876 0 0 1-.865-.576l-.554-1.42c-1.6-4.326-2.219-5.9-4.437-5.9h-4.081v6.965a.9.9 0 0 1-1.021.932c-.621 0-1.065-.31-1.065-.954v-14.064c0-1.708.688-2.4 2.263-2.4h5.191c3.216 0 4.991 1.708 4.991 4.437a4.07 4.07 0 0 1-3.5 4.325c1.331.4 2.041 1.886 3.682 6.034zm-5.99-8.408a2.867 2.867 0 0 0 3.128-2.95c0-1.885-1.02-2.906-2.994-2.906h-4.5c-.465 0-.731.244-.731.777v5.079z" class="cls-3"/>
                <path id="Path_5" d="M156.054 154.409c0 .511.332.71.82.71h7.941a.858.858 0 0 1 .888.954.886.886 0 0 1-.888.976h-8.584c-1.575 0-2.263-.688-2.263-2.373v-12.511c0-1.708.688-2.4 2.263-2.4h8.385a.857.857 0 0 1 .887.954.875.875 0 0 1-.887.976h-7.809c-.532 0-.753.244-.753.776v4.592h7.563a.853.853 0 0 1 .866.954.87.87 0 0 1-.866.932h-7.563z" class="cls-3"/>
            </g>
            <g id="Group_2">
                <path id="Path_6" d="M85.306 129.136c0 .926-.662 1.389-1.588 1.389a1.374 1.374 0 0 1-1.553-1.422v-21c0-2.547 1.024-3.539 3.372-3.539h13.13a1.286 1.286 0 0 1 1.356 1.422 1.312 1.312 0 0 1-1.356 1.456H86.332a.964.964 0 0 0-1.026 1.058v7.143h11.508a1.255 1.255 0 0 1 1.291 1.422 1.277 1.277 0 0 1-1.291 1.389H85.306z" class="cls-3"/>
                <path id="Path_7" d="M103.862 105.788c0-.992.695-1.422 1.588-1.422.927 0 1.588.43 1.588 1.389v20.438a1.055 1.055 0 0 0 1.19 1.157h11.707a1.33 1.33 0 0 1 1.356 1.456 1.4 1.4 0 0 1-1.356 1.521h-12.7c-2.348 0-3.374-1.026-3.374-3.539z" class="cls-3"/>
                <path id="Path_8" d="M127.711 126.391c0 .761.5 1.059 1.223 1.059h11.84a1.277 1.277 0 0 1 1.322 1.422 1.321 1.321 0 0 1-1.322 1.455h-12.8c-2.349 0-3.373-1.026-3.373-3.539v-18.652c0-2.546 1.024-3.572 3.373-3.572h12.5a1.278 1.278 0 0 1 1.323 1.422 1.305 1.305 0 0 1-1.323 1.456h-11.639c-.794 0-1.124.363-1.124 1.157v6.846h11.276a1.271 1.271 0 0 1 1.29 1.422 1.3 1.3 0 0 1-1.29 1.389h-11.276z" class="cls-3"/>
                <path id="Path_9" d="M161.744 104.928a1.3 1.3 0 0 1 1.124-.6 2.091 2.091 0 0 1 1.059.331 1.689 1.689 0 0 1 .76 1.355 1.1 1.1 0 0 1-.264.728l-7.341 10.02 8.3 11.344a1.162 1.162 0 0 1 .3.761 1.684 1.684 0 0 1-.76 1.323 2.1 2.1 0 0 1-1.059.33 1.45 1.45 0 0 1-1.158-.562l-7.64-10.88-7.672 10.88a1.291 1.291 0 0 1-1.092.562 1.951 1.951 0 0 1-1.09-.364 1.577 1.577 0 0 1-.728-1.256 1.507 1.507 0 0 1 .265-.794l8.268-11.31-7.541-10.054a1.506 1.506 0 0 1-.264-.761 1.634 1.634 0 0 1 .727-1.289 1.936 1.936 0 0 1 1.059-.364 1.2 1.2 0 0 1 1.058.562l7.043 9.624z" class="cls-3"/>
            </g>
        </g>
    </g>
</svg>
