<svg xmlns="http://www.w3.org/2000/svg" width="155" height="60" viewBox="0 0 155 60">
    <defs>
        <linearGradient id="linear-gradient" x1=".915" x2="-.383" y1="5.258" y2="4.589" gradientUnits="objectBoundingBox">
            <stop offset="0" stop-color="#00a0ff"/>
            <stop offset=".007" stop-color="#00a1ff"/>
            <stop offset=".26" stop-color="#00beff"/>
            <stop offset=".512" stop-color="#00d2ff"/>
            <stop offset=".76" stop-color="#00dfff"/>
            <stop offset="1" stop-color="#00e3ff"/>
        </linearGradient>
        <linearGradient id="linear-gradient-2" x1="1.076" x2="-1.305" y1="13.124" y2="13.124" gradientUnits="objectBoundingBox">
            <stop offset="0" stop-color="#ffe000"/>
            <stop offset=".409" stop-color="#ffbd00"/>
            <stop offset=".775" stop-color="orange"/>
            <stop offset="1" stop-color="#ff9c00"/>
        </linearGradient>
        <linearGradient id="linear-gradient-3" x1=".862" x2="-.501" y1="8.219" y2="6.45" gradientUnits="objectBoundingBox">
            <stop offset="0" stop-color="#ff3a44"/>
            <stop offset="1" stop-color="#c31162"/>
        </linearGradient>
        <linearGradient id="linear-gradient-4" x1="-.188" x2=".421" y1="10.939" y2="10.149" gradientUnits="objectBoundingBox">
            <stop offset="0" stop-color="#32a071"/>
            <stop offset=".068" stop-color="#2da771"/>
            <stop offset=".476" stop-color="#15cf74"/>
            <stop offset=".801" stop-color="#06e775"/>
            <stop offset="1" stop-color="#00f076"/>
        </linearGradient>
        <style>
            .cls-3{fill:#fff;stroke:#fff;stroke-miterlimit:10;stroke-width:.2px}.cls-10{isolation:isolate;opacity:.12}
        </style>
    </defs>
    <g id="Google_play" transform="translate(-56.625 -17)">
        <path id="Rectangle_572" fill="rgba(255,255,255,0)" d="M0 0H155V60H0z" transform="translate(56.625 17)"/>
        <rect id="Rectangle_573" width="135" height="40" rx="5" transform="translate(66.625 27)"/>
        <g id="Group_312">
            <g id="Group_311">
                <path id="Path_608" fill="#a6a6a6" d="M196.625 27.8a4.2 4.2 0 0 1 4.2 4.2v30a4.2 4.2 0 0 1-4.2 4.2h-125a4.2 4.2 0 0 1-4.2-4.2V32a4.2 4.2 0 0 1 4.2-4.2h125m0-.8h-125a5.015 5.015 0 0 0-5 5v30a5.015 5.015 0 0 0 5 5h125a5.015 5.015 0 0 0 5-5V32a5.015 5.015 0 0 0-5-5z"/>
            </g>
        </g>
        <g id="Group_313">
            <path id="Path_609" d="M114.043 37.243a2.709 2.709 0 0 1-.745 2 2.908 2.908 0 0 1-2.2.888 3.134 3.134 0 1 1 0-6.268 3.106 3.106 0 0 1 1.232.251 2.468 2.468 0 0 1 .938.671l-.527.527a2.029 2.029 0 0 0-1.643-.711 2.4 2.4 0 1 0 1.676 4.123 1.892 1.892 0 0 0 .5-1.216h-2.179v-.72H114a2.47 2.47 0 0 1 .043.455z" class="cls-3"/>
            <path id="Path_610" d="M118.653 34.737h-2.733v1.9h2.464v.72h-2.464v1.9h2.733V40h-3.5v-6h3.5z" class="cls-3"/>
            <path id="Path_611" d="M121.9 40h-.772v-5.263h-1.676V34h4.124v.737H121.9z" class="cls-3"/>
            <path id="Path_612" d="M126.563 40v-6h.771v6z" class="cls-3"/>
            <path id="Path_613" d="M130.753 40h-.771v-5.263h-1.676V34h4.123v.737h-1.676z" class="cls-3"/>
            <path id="Path_614" d="M140.234 39.225a3.116 3.116 0 0 1-4.4 0 3.242 3.242 0 0 1 0-4.45 3.106 3.106 0 0 1 4.395 0 3.232 3.232 0 0 1 0 4.446zm-3.83-.5a2.308 2.308 0 0 0 3.26 0 2.556 2.556 0 0 0 0-3.444 2.308 2.308 0 0 0-3.26 0 2.559 2.559 0 0 0 0 3.444z" class="cls-3"/>
            <path id="Path_615" d="M142.2 40v-6h.939l2.916 4.667h.033l-.033-1.156V34h.771v6h-.8l-3.051-4.894h-.034l.034 1.157V40z" class="cls-3"/>
        </g>
        <path id="Path_616" fill="#fff" d="M134.761 48.752a4.253 4.253 0 1 0 4.269 4.253 4.192 4.192 0 0 0-4.269-4.253zm0 6.83a2.584 2.584 0 1 1 2.4-2.577 2.46 2.46 0 0 1-2.4 2.577zm-9.314-6.83a4.253 4.253 0 1 0 4.27 4.253 4.192 4.192 0 0 0-4.27-4.253zm0 6.83a2.584 2.584 0 1 1 2.4-2.577 2.46 2.46 0 0 1-2.4 2.577zm-11.078-5.525v1.8h4.317a3.765 3.765 0 0 1-.982 2.271 4.42 4.42 0 0 1-3.335 1.321 4.8 4.8 0 0 1 0-9.6 4.6 4.6 0 0 1 3.254 1.289l1.273-1.273a6.3 6.3 0 0 0-4.527-1.821 6.606 6.606 0 1 0 0 13.211 6.036 6.036 0 0 0 4.607-1.853 5.962 5.962 0 0 0 1.563-4.221 5.829 5.829 0 0 0-.1-1.127zm45.308 1.4a3.953 3.953 0 0 0-3.641-2.706 4.041 4.041 0 0 0-4.011 4.253 4.162 4.162 0 0 0 4.221 4.253 4.23 4.23 0 0 0 3.544-1.885l-1.45-.967a2.43 2.43 0 0 1-2.094 1.176 2.165 2.165 0 0 1-2.063-1.288l5.687-2.353zm-5.8 1.418A2.333 2.333 0 0 1 156.1 50.4a1.645 1.645 0 0 1 1.579.9zM149.254 57h1.868V44.5h-1.868zm-3.062-7.3h-.064a2.948 2.948 0 0 0-2.239-.95 4.257 4.257 0 0 0 0 8.506 2.9 2.9 0 0 0 2.239-.967h.064v.611c0 1.627-.869 2.5-2.271 2.5a2.354 2.354 0 0 1-2.143-1.515l-1.627.677a4.053 4.053 0 0 0 3.77 2.513c2.191 0 4.044-1.289 4.044-4.43v-7.636h-1.773zm-2.142 5.88a2.587 2.587 0 0 1 0-5.155 2.6 2.6 0 0 1 0 5.155zm24.381-11.08h-4.471V57h1.865v-4.736h2.606a3.888 3.888 0 1 0 0-7.765zm.048 6.025h-2.654v-4.286h2.654a2.143 2.143 0 1 1 0 4.285zm11.532-1.795a3.505 3.505 0 0 0-3.33 1.913l1.657.692a1.768 1.768 0 0 1 1.705-.917 1.8 1.8 0 0 1 1.962 1.609v.128a4.128 4.128 0 0 0-1.946-.482c-1.785 0-3.6.981-3.6 2.814a2.889 2.889 0 0 0 3.1 2.751 2.633 2.633 0 0 0 2.381-1.223h.064v.965h1.8v-4.794c.002-2.219-1.654-3.457-3.793-3.457zm-.225 6.851c-.612 0-1.464-.305-1.464-1.061 0-.965 1.061-1.335 1.978-1.335a3.329 3.329 0 0 1 1.705.418 2.262 2.262 0 0 1-2.219 1.977zM190.368 49l-2.139 5.42h-.064l-2.22-5.42h-2.01l3.329 7.575-1.9 4.214h1.946L192.443 49zm-16.807 8h1.866V44.5h-1.866z"/>
        <g id="Group_315">
            <path id="Path_617" fill="url(#linear-gradient)" d="M77.06 34.538a2.007 2.007 0 0 0-.462 1.405v22.116a2.005 2.005 0 0 0 .462 1.405l.074.072 12.389-12.389v-.292l-12.389-12.39z"/>
            <path id="Path_618" fill="url(#linear-gradient-2)" d="M93.653 51.279l-4.13-4.132v-.292l4.131-4.131.093.054 4.893 2.78c1.4.794 1.4 2.093 0 2.887l-4.893 2.78z"/>
            <path id="Path_619" fill="url(#linear-gradient-3)" d="M93.747 51.225L89.523 47 77.06 59.464a1.627 1.627 0 0 0 2.079.061l14.608-8.3"/>
            <path id="Path_620" fill="url(#linear-gradient-4)" d="M93.747 42.777l-14.608-8.3a1.627 1.627 0 0 0-2.079.061L89.523 47z"/>
            <g id="Group_314">
                <path id="Path_621" d="M93.654 51.132l-14.515 8.247a1.665 1.665 0 0 1-2 .011l-.075.074.074.073a1.665 1.665 0 0 0 2-.011l14.608-8.3z" style="isolation:isolate" opacity="0.2"/>
                <path id="Path_622" d="M77.06 59.318a2.005 2.005 0 0 1-.462-1.405v.147a2 2 0 0 0 .462 1.4l.075-.074z" class="cls-10"/>
            </g>
            <path id="Path_623" d="M98.64 48.3l-4.986 2.833.093.093 4.893-2.78A1.755 1.755 0 0 0 99.688 47a1.863 1.863 0 0 1-1.048 1.3z" class="cls-10"/>
            <path id="Path_624" d="M79.139 34.623L98.64 45.7a1.863 1.863 0 0 1 1.048 1.3 1.753 1.753 0 0 0-1.048-1.444l-19.5-11.08c-1.4-.794-2.541-.134-2.541 1.466v.147c.001-1.6 1.142-2.26 2.54-1.466z" style="isolation:isolate" fill="#fff" opacity="0.25"/>
        </g>
    </g>
</svg>
