<svg xmlns="http://www.w3.org/2000/svg" width="68" height="68" viewBox="0 0 68 68">
    <defs>
        <style>
            .cls-2{fill:#fff}.cls-3{fill:#1181c2}.cls-4{fill:#1181c1;stroke:#1181c1;stroke-miterlimit:10;stroke-width:.5px}
        </style>
    </defs>
    <g id="Group_1752" transform="translate(-112.809 -745)">
        <rect id="Rectangle_1764" width="68" height="68" fill="#1381c2" opacity="0.055" rx="34" transform="translate(112.809 745)"/>
        <g id="ICON_Statistics" transform="translate(124.249 755)">
            <path id="Rectangle_1707" d="M0 0H9V17H0z" class="cls-2" transform="translate(2.5 18.983)"/>
            <path id="Rectangle_1708" d="M0 0H9V22H0z" class="cls-2" transform="translate(17.5 13.983)"/>
            <path id="Rectangle_1709" d="M0 0H9V33H0z" class="cls-2" transform="translate(32.5 2.983)"/>
            <path id="Path_1028" d="M89.413 69.267S92.6 58.955 106.364 59.25s17.316 10.016 17.316 10.016-4.313 8.693-16.672 8.657-17.595-8.656-17.595-8.656z" class="cls-2" transform="translate(-73.234 -31.355)"/>
            <g id="Group_1658">
                <path id="Rectangle_1350" d="M806.631-1379.109v14.313h-6.77v-14.313h6.77m1.832-1.832h-10.434v17.978h10.435v-17.978z" class="cls-3" transform="translate(-798.029 1397.121)"/>
                <path id="Path_1009" d="M846.958-1383.043v-22.557h6.791v22.9q.924.141 1.832.331v-25.067h-10.455v24.526c.614-.057 1.226-.104 1.832-.133z" class="cls-3" transform="translate(-816.362 1407.433)"/>
                <path id="Path_1010" d="M823.409-1372.7v-15.242h6.715v12.908q.911-.225 1.832-.409v-14.331h-10.379v17.994c.589-.32 1.204-.625 1.832-.92z" class="cls-3" transform="translate(-807.195 1400.558)"/>
                <path id="Path_1011" d="M838.308-1346.029c-6.506 0-12.594-2.824-15.887-7.37a.706.706 0 0 1 0-.828c3.293-4.546 9.38-7.37 15.887-7.37s12.594 2.824 15.887 7.37a.708.708 0 0 1 0 .828c-3.295 4.546-9.381 7.37-15.887 7.37zm-14.431-7.785c3.1 3.943 8.572 6.373 14.431 6.373s11.334-2.43 14.431-6.373c-3.1-3.943-8.571-6.373-14.431-6.373s-11.334 2.431-14.431 6.374z" class="cls-4" transform="translate(-807.472 1389.591)"/>
                <path id="Path_1012" d="M844.66-1346.656a6.062 6.062 0 0 1-6.056-6.055 6.062 6.062 0 0 1 6.056-6.055 6.061 6.061 0 0 1 6.055 6.055 6.062 6.062 0 0 1-6.055 6.055zm0-10.7a4.649 4.649 0 0 0-4.644 4.643 4.649 4.649 0 0 0 4.644 4.644 4.649 4.649 0 0 0 4.643-4.644 4.648 4.648 0 0 0-4.643-4.641z" class="cls-4" transform="translate(-813.823 1388.489)"/>
            </g>
        </g>
    </g>
</svg>
