<svg xmlns="http://www.w3.org/2000/svg" width="68" height="68" viewBox="0 0 68 68">
    <defs>
        <style>
            .cls-2{fill:#fff}.cls-3{fill:none;stroke:#1181c2;stroke-linejoin:round;stroke-width:1.5px}
        </style>
    </defs>
    <g id="Group_1751" transform="translate(-111.809 -805)">
        <rect id="Rectangle_1765" width="68" height="68" fill="#1381c2" opacity="0.052" rx="34" transform="translate(111.809 805)"/>
        <g id="ICON_COVID" transform="translate(119.809 810.223)">
            <path id="Path_1218" d="M6 1s11.543 6.833 22.668 6.833S50.5 1 50.5 1v21.7s-10.58 6.04-21.706 6.04S6 22.7 6 22.7z" class="cls-2" transform="translate(4.981 23.851)"/>
            <ellipse id="Ellipse_94" cx="3.364" cy="3.845" class="cls-2" rx="3.364" ry="3.845" transform="translate(8.65 5.494)"/>
            <ellipse id="Ellipse_95" cx="3.845" cy="3.364" class="cls-2" rx="3.845" ry="3.364" transform="translate(30.757 2.61)"/>
            <circle id="Ellipse_96" cx="8.17" cy="8.17" r="8.17" class="cls-2" transform="translate(13.456 11.261)"/>
            <circle id="Ellipse_101" cx="4.325" cy="4.325" r="4.325" class="cls-2" transform="translate(32.68 17.028)"/>
            <g id="Group_1659" transform="translate(0 19.161)">
                <path id="Path_1015" d="M970.616-1323.551c-3.439 3.577-12.853 5.779-20.572 5.779s-16.455-2.484-19.854-5.779V-1342c1.277 1.255 13.829 4.046 19.854 4.046s19.115-1.66 20.572-4.046z" class="cls-3" transform="translate(-922.417 1346.823)"/>
                <path id="Path_1016" d="M970.483-1324.75c-3.438 2.039-12.853 5.028-20.572 5.028a48.184 48.184 0 0 1-19.854-5.028v-8.782c1.277.715 13.829 4.039 19.854 4.039s19.115-2.68 20.572-4.039z" class="cls-3" transform="translate(-922.361 1343.247)"/>
                <path id="Path_1017" d="M924.513-1345.523s-3.368-5.9-6.505-4.644-.251 21.59 6.505 23.1" class="cls-3" transform="translate(-916.741 1350.342)"/>
                <path id="Path_1018" d="M999.79-1344.734s3.367-5.9 6.506-4.645.251 21.59-6.506 23.1" class="cls-3" transform="translate(-951.794 1350.01)"/>
            </g>
            <path id="Path_1014" fill="#1181c2" d="M954.415-1369.626a4.893 4.893 0 0 0-4.827 4.152l-2.646.018a9.573 9.573 0 0 0-2.5-5.619l4.823-4.9a4.069 4.069 0 0 0 2.169.627 4.067 4.067 0 0 0 2.883-1.192 4.082 4.082 0 0 0 0-5.767 4.082 4.082 0 0 0-5.767 0 4.084 4.084 0 0 0-.526 5.12l-4.866 4.941a9.56 9.56 0 0 0-5.8-1.96 9.573 9.573 0 0 0-6.06 2.157l-2.161-2.132a3.734 3.734 0 0 0 .493-1.857 3.735 3.735 0 0 0-1.1-2.658 3.735 3.735 0 0 0-2.658-1.1 3.734 3.734 0 0 0-2.657 1.1 3.734 3.734 0 0 0-1.1 2.658 3.731 3.731 0 0 0 1.1 2.657 3.734 3.734 0 0 0 2.657 1.1 3.733 3.733 0 0 0 2.085-.63l2.1 2.074a9.584 9.584 0 0 0-2.265 5.26c.529.338 1.1.7 1.683 1.063v-.075a7.9 7.9 0 0 1 7.886-7.885 7.9 7.9 0 0 1 7.886 7.885 7.845 7.845 0 0 1-1.861 5.077c.656.12 1.3.234 1.906.337a9.548 9.548 0 0 0 1.645-4.552l2.686-.018a4.9 4.9 0 0 0 4.786 3.893 4.9 4.9 0 0 0 4.89-4.889 4.9 4.9 0 0 0-4.884-4.885zm-4.635-11.452a2.337 2.337 0 0 1 1.657-.685 2.339 2.339 0 0 1 1.658.685 2.347 2.347 0 0 1 0 3.315 2.347 2.347 0 0 1-3.315 0 2.347 2.347 0 0 1 0-3.315zm-22.468 6.475a2.073 2.073 0 0 1-2.863 0 2.009 2.009 0 0 1-.593-1.431 2.012 2.012 0 0 1 .593-1.432 2.013 2.013 0 0 1 1.432-.593 2.012 2.012 0 0 1 1.432.593 2.012 2.012 0 0 1 .593 1.432 2.011 2.011 0 0 1-.593 1.434zm27.1 13.022a3.159 3.159 0 0 1-3.156-3.156 3.159 3.159 0 0 1 3.156-3.155 3.159 3.159 0 0 1 3.156 3.155 3.159 3.159 0 0 1-3.153 3.156z" transform="translate(-919.013 1383.496)"/>
        </g>
    </g>
</svg>
