<svg xmlns="http://www.w3.org/2000/svg" width="68" height="68" viewBox="0 0 68 68">
    <defs>
        <style>
            .cls-2{fill:#fff}.cls-3{fill:#1181c1;stroke:#1181c1;stroke-miterlimit:10;stroke-width:.5px}
        </style>
    </defs>
    <g id="Group_1753" transform="translate(-210.809 -602)">
        <rect id="Rectangle_1763" width="68" height="68" fill="#77c9f8" opacity="0.147" rx="34" transform="translate(210.809 602)"/>
        <g id="ICON_Meeting_room" transform="translate(219.069 613.585)">
            <g id="Group_1670" transform="translate(2.33 1.755)">
                <path id="Path_1027" d="M336.336 71.044l-1.785-4.265a2.139 2.139 0 0 0-2.48-.967 2.052 2.052 0 0 0-1.314 2.231s1.644 5.12 2.524 7.769c1.441 4.334 5.149 4.69 10.356 4.69s8.056-2.966 8.121-8.12v-7.02s0-1.327-1.859-1.376a1.768 1.768 0 0 0-1.86 1.376v-1.639s-.093-1.376-1.822-1.376a1.875 1.875 0 0 0-2 1.376l.029 3.979-.038-3.979a1.848 1.848 0 0 0-1.934-1.376 1.772 1.772 0 0 0-1.907 1.376l.012 3.979-.04-13.86a1.874 1.874 0 0 0-1.97-1.562 1.715 1.715 0 0 0-1.859 1.562z" class="cls-2" transform="translate(-308.008 -34.912)"/>
                <circle id="Ellipse_91" cx="6.141" cy="6.141" r="6.141" class="cls-2" transform="translate(3.372 5.263)"/>
                <ellipse id="Ellipse_92" cx="6.141" cy="5.702" class="cls-2" rx="6.141" ry="5.702" transform="translate(19.162)"/>
                <circle id="Ellipse_93" cx="6.141" cy="6.141" r="6.141" class="cls-2" transform="translate(34.953 6.141)"/>
                <path id="Path_1026" d="M56.849 55.625l2.543-3.654S48.036 50.183 48.3 48.69s2.193-7.428 8.546-7.163 6.989 3.52 6.989 3.52.064-8.118 8.434-8.015S81.4 43.2 81.4 43.2s7.071-2.677 9.781-2.7 6.869 3.693 6.78 8.19-7.664 4.1-7.664 4.1l.884 2.836z" class="cls-2" transform="translate(-48.298 -20.805)"/>
            </g>
            <g id="Group_1657">
                <path id="Path_1001" d="M461.132 15.755a5.219 5.219 0 1 1-5.219 5.219 5.225 5.225 0 0 1 5.219-5.219m0-1.122a6.341 6.341 0 1 0 6.341 6.341 6.341 6.341 0 0 0-6.341-6.341z" class="cls-3" transform="translate(-436.043 -14.633)"/>
                <path id="Path_1002" d="M493.841 28.813a5.22 5.22 0 1 1-5.219 5.22 5.226 5.226 0 0 1 5.219-5.22m0-1.121a6.341 6.341 0 1 0 6.341 6.341 6.341 6.341 0 0 0-6.341-6.341z" class="cls-3" transform="translate(-452.87 -21.351)"/>
                <path id="Path_1003" d="M428.424 28.813a5.22 5.22 0 1 1-5.219 5.22 5.226 5.226 0 0 1 5.219-5.22m0-1.121a6.341 6.341 0 1 0 6.34 6.341 6.341 6.341 0 0 0-6.34-6.341z" class="cls-3" transform="translate(-419.216 -21.351)"/>
                <path id="Path_1004" d="M424 68.45l.665-1c-1.857-.495-7.36-1.946-7.36-3.506 0-3.423 3.567-6.208 7.951-6.208a7.876 7.876 0 0 1 4.581 1.14l.639-.92a8.924 8.924 0 0 0-5.22-1.342c-5 0-9.072 3.288-9.072 7.33-.005 2.234 4.123 3.522 7.816 4.506z" class="cls-3" transform="translate(-416.179 -36.229)"/>
                <path id="Path_1005" d="M449.458 61.054h3.042l.025-1.1h-11.7l-7.371 11.784 1.5.009 6.692-10.7h7.814z" class="cls-3" transform="translate(-425.065 -37.95)"/>
                <path id="Path_1006" fill="none" stroke="#1181c2" stroke-linecap="round" stroke-linejoin="round" stroke-width="2px" d="M471.41 71.977l-1.586-3.789a1.9 1.9 0 0 0-2.2-.859 1.823 1.823 0 0 0-1.168 1.983s1.461 4.549 2.243 6.9c1.281 3.851 4.575 4.168 9.2 4.168s7.159-2.637 7.216-7.216v-6.237s0-1.179-1.652-1.223a1.572 1.572 0 0 0-1.653 1.223v-1.456s-.083-1.223-1.619-1.223a1.666 1.666 0 0 0-1.776 1.223l.026 3.536-.034-3.536a1.643 1.643 0 0 0-1.719-1.223 1.575 1.575 0 0 0-1.695 1.223l.007 3.536-.036-12.318a1.666 1.666 0 0 0-1.75-1.388 1.525 1.525 0 0 0-1.652 1.388z" transform="translate(-442.034 -35.554)"/>
                <path id="Path_1007" d="M495.307 56.613a8.924 8.924 0 0 0-5.22 1.342l.639.92a7.877 7.877 0 0 1 4.581-1.14c4.384 0 7.951 2.785 7.951 6.208 0 .978-2.161 1.913-4.232 2.6l.263 1.122c2.739-.884 5.091-2.032 5.091-3.718 0-4.047-4.07-7.334-9.073-7.334z" class="cls-3" transform="translate(-454.2 -36.229)"/>
                <path id="Path_1008" d="M458.654 44.676c3.311 0 5.611 1.244 6.824 2.7l1.38.007c-1.311-2.1-4.282-3.828-8.2-3.828-4.956 0-8.945 3.4-8.945 6.207h1.122c-.004-2.001 3.355-5.086 7.819-5.086z" class="cls-3" transform="translate(-433.428 -29.512)"/>
            </g>
        </g>
    </g>
</svg>
