<svg xmlns="http://www.w3.org/2000/svg" width="43.472" height="44.337" viewBox="0 0 43.472 44.337">
    <defs>
        <style>
            .cls-1{fill:none;stroke:#1181c2;stroke-linecap:round;stroke-linejoin:round;stroke-width:2px}
        </style>
    </defs>
    <g id="ICON_Desk_booking" transform="translate(1 1)">
        <path id="Path_999" d="M324.571 38.7V26.984h-9.677a11.059 11.059 0 1 0-22.119 0H283.1v20.785h19.58" class="cls-1" transform="translate(-283.099 -15.899)"/>
        <path id="Path_1000" d="M335.654 68.8l-1.568-3.753a1.877 1.877 0 0 0-2.177-.851 1.807 1.807 0 0 0-1.154 1.964s1.443 4.506 2.217 6.838c1.265 3.815 4.521 4.128 9.093 4.128s7.073-2.611 7.131-7.147v-6.18s0-1.168-1.633-1.211a1.554 1.554 0 0 0-1.633 1.211v-1.448a1.412 1.412 0 0 0-1.6-1.211 1.648 1.648 0 0 0-1.755 1.211l.025 3.5-.034-3.5a1.624 1.624 0 0 0-1.7-1.211 1.557 1.557 0 0 0-1.674 1.211l.011 3.5-.035-12.2a1.647 1.647 0 0 0-1.73-1.375 1.508 1.508 0 0 0-1.633 1.375z" class="cls-1" transform="translate(-307.883 -34.784)"/>
    </g>
</svg>
