<svg xmlns="http://www.w3.org/2000/svg" width="55.855" height="41.286" viewBox="0 0 55.855 41.286">
    <g>
        <path d="M0 0l-.965-.965a1 1 0 0 0-1.4 0 1 1 0 0 0 0 1.4l.965.965a25.235 25.235 0 0 1 7.452 18.65 25.2 25.2 0 0 1-8.368 18.244 1 1 0 0 0-.07 1.4 1.028 1.028 0 0 0 .737.334.974.974 0 0 0 .667-.263 27.372 27.372 0 0 0 6.63-9.105 27.692 27.692 0 0 0 2.4-10.578A27.732 27.732 0 0 0 6.192 9.4 27.679 27.679 0 0 0 0 0" transform="translate(-960.754 -1579.412) translate(1008.55 1580.667)"/>
        <path d="M0 0a20.593 20.593 0 0 0-1.4-8.034A20.366 20.366 0 0 0-6.034-15.1l-.72-.719a1 1 0 0 0-1.4 0 1 1 0 0 0 0 1.4l.719.719A18.485 18.485 0 0 1-1.982-.053 18.414 18.414 0 0 1-8.1 13.3a1 1 0 0 0-.071 1.4 1.027 1.027 0 0 0 .737.333.97.97 0 0 0 .667-.263 20.41 20.41 0 0 0 4.978-6.841A20.831 20.831 0 0 0 0 0" transform="translate(-960.754 -1579.412) translate(1008.462 1600.595)"/>
        <path d="M0 0a.974.974 0 0 0 .667.263A.963.963 0 0 0 1.4-.07a1 1 0 0 0-.07-1.4 25.2 25.2 0 0 1-8.364-18.247A25.257 25.257 0 0 1 .421-38.364l.965-.965a1 1 0 0 0 0-1.4 1 1 0 0 0-1.4 0l-.964.964a27.086 27.086 0 0 0-6.158 9.42A27.038 27.038 0 0 0-9-19.664 27.161 27.161 0 0 0-6.6-9.087 26.717 26.717 0 0 0 0 0" transform="translate(-960.754 -1579.412) translate(969.765 1620.435)"/>
        <path d="M0 0a1 1 0 0 0 0-1.4 1 1 0 0 0-1.4 0l-.72.719a20.539 20.539 0 0 0-6.034 15.1 20.3 20.3 0 0 0 1.804 7.947 20.577 20.577 0 0 0 4.982 6.841.969.969 0 0 0 .668.263.965.965 0 0 0 .737-.333 1 1 0 0 0-.07-1.4 18.445 18.445 0 0 1-6.122-13.35A18.488 18.488 0 0 1-.7.737z" transform="translate(-960.754 -1579.412) translate(977.027 1586.193)"/>
        <path d="M0 0a4.631 4.631 0 0 1 0 9.262 4.627 4.627 0 0 1-4.631-4.631A4.627 4.627 0 0 1 0 0m-9.683 4.631A9.68 9.68 0 0 0 0 14.314 9.683 9.683 0 0 0 0-5.052a9.68 9.68 0 0 0-9.683 9.683" transform="translate(-960.754 -1579.412) translate(988.517 1596.052)"/>
        <path d="M0 0a2.314 2.314 0 0 0 2.316-2.316A2.313 2.313 0 0 0 0-4.631a2.313 2.313 0 0 0-2.316 2.315A2.314 2.314 0 0 0 0 0" transform="translate(-960.754 -1579.412) translate(988.429 1602.84)"/>
    </g>
</svg>
