<svg xmlns="http://www.w3.org/2000/svg" width="50.679" height="46.079" viewBox="0 0 50.679 46.079">
    <defs>
        <style>
            .cls-1{fill:#1181c1;stroke:#1181c1;stroke-miterlimit:10;stroke-width:.5px}
        </style>
    </defs>
    <g id="ICON_Meeting_room" transform="translate(.25 .25)">
        <g id="Group_1657">
            <path id="Path_1001" d="M461.132 15.755a5.219 5.219 0 1 1-5.219 5.219 5.225 5.225 0 0 1 5.219-5.219m0-1.122a6.341 6.341 0 1 0 6.341 6.341 6.341 6.341 0 0 0-6.341-6.341z" class="cls-1" transform="translate(-436.043 -14.633)"/>
            <path id="Path_1002" d="M493.841 28.813a5.22 5.22 0 1 1-5.219 5.22 5.226 5.226 0 0 1 5.219-5.22m0-1.121a6.341 6.341 0 1 0 6.341 6.341 6.341 6.341 0 0 0-6.341-6.341z" class="cls-1" transform="translate(-452.87 -21.351)"/>
            <path id="Path_1003" d="M428.424 28.813a5.22 5.22 0 1 1-5.219 5.22 5.226 5.226 0 0 1 5.219-5.22m0-1.121a6.341 6.341 0 1 0 6.34 6.341 6.341 6.341 0 0 0-6.34-6.341z" class="cls-1" transform="translate(-419.216 -21.351)"/>
            <path id="Path_1004" d="M424 68.45l.665-1c-1.857-.495-7.36-1.946-7.36-3.506 0-3.423 3.567-6.208 7.951-6.208a7.876 7.876 0 0 1 4.581 1.14l.639-.92a8.924 8.924 0 0 0-5.22-1.342c-5 0-9.072 3.288-9.072 7.33-.005 2.234 4.123 3.522 7.816 4.506z" class="cls-1" transform="translate(-416.179 -36.229)"/>
            <path id="Path_1005" d="M449.458 61.054h3.042l.025-1.1h-11.7l-7.371 11.784 1.5.009 6.692-10.7h7.814z" class="cls-1" transform="translate(-425.065 -37.95)"/>
            <path id="Path_1006" fill="none" stroke="#1181c2" stroke-linecap="round" stroke-linejoin="round" stroke-width="2px" d="M471.41 71.977l-1.586-3.789a1.9 1.9 0 0 0-2.2-.859 1.823 1.823 0 0 0-1.168 1.983s1.461 4.549 2.243 6.9c1.281 3.851 4.575 4.168 9.2 4.168s7.159-2.637 7.216-7.216v-6.237s0-1.179-1.652-1.223a1.572 1.572 0 0 0-1.653 1.223v-1.456s-.083-1.223-1.619-1.223a1.666 1.666 0 0 0-1.776 1.223l.026 3.536-.034-3.536a1.643 1.643 0 0 0-1.719-1.223 1.575 1.575 0 0 0-1.695 1.223l.007 3.536-.036-12.318a1.666 1.666 0 0 0-1.75-1.388 1.525 1.525 0 0 0-1.652 1.388z" transform="translate(-442.034 -35.554)"/>
            <path id="Path_1007" d="M495.307 56.613a8.924 8.924 0 0 0-5.22 1.342l.639.92a7.877 7.877 0 0 1 4.581-1.14c4.384 0 7.951 2.785 7.951 6.208 0 .978-2.161 1.913-4.232 2.6l.263 1.122c2.739-.884 5.091-2.032 5.091-3.718 0-4.047-4.07-7.334-9.073-7.334z" class="cls-1" transform="translate(-454.2 -36.229)"/>
            <path id="Path_1008" d="M458.654 44.676c3.311 0 5.611 1.244 6.824 2.7l1.38.007c-1.311-2.1-4.282-3.828-8.2-3.828-4.956 0-8.945 3.4-8.945 6.207h1.122c-.004-2.001 3.355-5.086 7.819-5.086z" class="cls-1" transform="translate(-433.428 -29.512)"/>
        </g>
    </g>
</svg>
