<svg xmlns="http://www.w3.org/2000/svg" width="69.91" height="43.824" viewBox="0 0 69.91 43.824">
    <g style="isolation:isolate">
        <path d="M0 0a10.646 10.646 0 0 0-10.646 10.646A10.646 10.646 0 0 0 0 21.292a10.646 10.646 0 0 0 10.646-10.646A10.657 10.657 0 0 0 0 0m5.679 16.325A7.972 7.972 0 0 1 0 18.68a7.972 7.972 0 0 1-5.679-2.355 7.975 7.975 0 0 1-2.356-5.679 7.973 7.973 0 0 1 2.356-5.679A7.973 7.973 0 0 1 0 2.611a7.973 7.973 0 0 1 5.679 2.356 7.973 7.973 0 0 1 2.356 5.679 8.1 8.1 0 0 1-2.356 5.679" transform="translate(-1.826 603.6) translate(36.781 -592.353)"/>
        <path d="M0 0a39.566 39.566 0 0 0-34.8-21.291A39.623 39.623 0 0 0-69.608 0a1.354 1.354 0 0 0 0 1.242A39.625 39.625 0 0 0-34.8 22.533 39.589 39.589 0 0 0 0 1.242 1.354 1.354 0 0 0 0 0m-47.513 13.33A17.912 17.912 0 0 1-52.772.621a17.912 17.912 0 0 1 5.259-12.709A17.908 17.908 0 0 1-34.8-17.347a17.908 17.908 0 0 1 12.709 5.259A17.912 17.912 0 0 1-16.836.621a17.912 17.912 0 0 1-5.259 12.709A17.912 17.912 0 0 1-34.8 18.589a17.912 17.912 0 0 1-12.713-5.259M-66.924.621A37.472 37.472 0 0 1-45.3-17.073 20.612 20.612 0 0 0-55.4.621a20.573 20.573 0 0 0 10.08 17.694A37.631 37.631 0 0 1-66.924.621m42.638 17.694A20.6 20.6 0 0 0-14.206.621 20.549 20.549 0 0 0-24.3-17.073 37.6 37.6 0 0 1-2.684.621a37.631 37.631 0 0 1-21.6 17.694" transform="translate(-1.826 603.6) translate(71.585 -582.309)"/>
    </g>
</svg>
