<svg xmlns="http://www.w3.org/2000/svg" width="49.122" height="54.799" viewBox="0 0 49.122 54.799">
    <g style="isolation:isolate">
        <path d="M0 0a1.218 1.218 0 0 0-.776-1.123A1.187 1.187 0 0 0-2.1-.776a9.879 9.879 0 0 1-4.059 2.658 17.547 17.547 0 0 1-6.191 1.073 17.029 17.029 0 0 1-7.2-1.5 7.6 7.6 0 0 1-3.85-3.469 1.177 1.177 0 0 0-1.09-.71 1.211 1.211 0 0 0-1.089.71 7.6 7.6 0 0 1-3.847 3.467 17.032 17.032 0 0 1-7.2 1.5 17.487 17.487 0 0 1-6.192-1.073 9.882 9.882 0 0 1-4.056-2.656 1.207 1.207 0 0 0-1.321-.347A1.161 1.161 0 0 0-48.971 0c0 6.736-.083 13.489-.083 20.226a30.3 30.3 0 0 0 6.7 18.723 44.221 44.221 0 0 0 17.39 13.027 1.168 1.168 0 0 0 .941 0A44.075 44.075 0 0 0-6.637 38.949a30.308 30.308 0 0 0 6.7-18.723C.083 13.473 0 6.736 0 0m-8.5 37.5a41.609 41.609 0 0 1-15.986 12.082A41.449 41.449 0 0 1-40.468 37.5a27.9 27.9 0 0 1-6.208-17.254c0-5.861.049-11.755.066-17.633a14.536 14.536 0 0 0 2.939 1.519 20.132 20.132 0 0 0 7.033 1.218 19.2 19.2 0 0 0 8.223-1.734A11.1 11.1 0 0 0-24.5.644a11.436 11.436 0 0 0 3.913 2.972 19.428 19.428 0 0 0 8.22 1.734 20.133 20.133 0 0 0 7.034-1.222 14.1 14.1 0 0 0 2.939-1.519c.016 5.894.066 11.772.066 17.633A27.7 27.7 0 0 1-8.5 37.5" transform="translate(-12.219 56.45) translate(61.273 -53.726)"/>
        <path d="M0 0a1.2 1.2 0 0 0-1.651.347l-11.937 18.244-8.025-9.3A1.2 1.2 0 0 0-23.3 9.18a1.2 1.2 0 0 0-.115 1.684l9.048 10.485a1.228 1.228 0 0 0 .974.412 1.12 1.12 0 0 0 .908-.528L.314 1.668A1.163 1.163 0 0 0 0 0" transform="translate(-12.219 56.45) translate(49.452 -40.567)"/>
    </g>
</svg>
