<svg xmlns="http://www.w3.org/2000/svg" width="47.89" height="46.449" viewBox="0 0 47.89 46.449">
    <defs>
        <style>
            .cls-1{fill:#fff}.cls-2{fill:none;stroke:#1181c2;stroke-linecap:round;stroke-linejoin:round;stroke-width:2px}
        </style>
    </defs>
    <g id="ICON_Desk_booking" transform="translate(1 1)">
        <path id="Path_1019" d="M2.844-11.371s10.656.287 10.6 0 .241-11.288 12.451-11.447 11.937 11.447 11.937 11.447h9.2V11.2H2.844z" class="cls-1" transform="translate(-.143 24.008)"/>
        <path id="Path_1020" d="M336.282 70.865l-1.768-4.224a2.119 2.119 0 0 0-2.456-.958 2.032 2.032 0 0 0-1.3 2.21s1.628 5.071 2.5 7.695c1.427 4.292 5.1 4.645 10.257 4.645s7.978-2.938 8.043-8.042v-6.954s0-1.314-1.842-1.363a1.751 1.751 0 0 0-1.842 1.363v-1.624s-.092-1.363-1.8-1.363a1.857 1.857 0 0 0-1.98 1.363l.029 3.941-.038-3.941a1.831 1.831 0 0 0-1.916-1.363 1.755 1.755 0 0 0-1.889 1.363l.012 3.941-.04-13.728a1.856 1.856 0 0 0-1.951-1.547 1.7 1.7 0 0 0-1.842 1.547z" class="cls-1" transform="translate(-306.509 -34.784)"/>
        <path id="Path_999" d="M324.571 38.7V26.984h-9.677a11.059 11.059 0 1 0-22.119 0H283.1v20.785h19.58" class="cls-2" transform="translate(-283.099 -15.899)"/>
        <path id="Path_1000" d="M335.654 68.8l-1.568-3.753a1.877 1.877 0 0 0-2.177-.851 1.807 1.807 0 0 0-1.154 1.964s1.443 4.506 2.217 6.838c1.265 3.815 4.521 4.128 9.093 4.128s7.073-2.611 7.131-7.147v-6.18s0-1.168-1.633-1.211a1.554 1.554 0 0 0-1.633 1.211v-1.448a1.412 1.412 0 0 0-1.6-1.211 1.648 1.648 0 0 0-1.755 1.211l.025 3.5-.034-3.5a1.624 1.624 0 0 0-1.7-1.211 1.557 1.557 0 0 0-1.674 1.211l.011 3.5-.035-12.2a1.647 1.647 0 0 0-1.73-1.375 1.508 1.508 0 0 0-1.633 1.375z" class="cls-2" transform="translate(-307.883 -34.784)"/>
    </g>
</svg>
