<svg xmlns="http://www.w3.org/2000/svg" width="78.973" height="75" viewBox="0 0 78.973 75">
    <defs>
        <style>
            .cls-1{fill:#fff}
        </style>
    </defs>
    <g id="ISO_9001" transform="translate(-42.029 -18.751)">
        <g id="Group_1690" transform="translate(42.029 18.751)">
            <g id="Group_1689">
                <path id="Path_1116" d="M42.8 84.955l3.854-2.177-4.337-.9-.139-.888 4.874-.764.1.614-4.055.636v.013l4.294.887.086.553-3.816 2.157v.014l4.055-.636.1.614-4.874.764z" class="cls-1" transform="translate(-42.074 -37.748)"/>
                <path id="Path_1117" d="M42.029 74.985L46.942 73l.008.726-1.479.555.023 2.087 1.492.536.007.671-4.956-1.865zm2.89-.487l-2.292.847v.014l2.311.811z" class="cls-1" transform="translate(-42.029 -35.516)"/>
                <path id="Path_1118" d="M42.221 69.069l4.3-2.074v-.015l-3.97-.5.079-.616 4.894.62-.09.713-4.254 2.056v.015l3.928.5-.078.617-4.895-.621z" class="cls-1" transform="translate(-42.061 -33.309)"/>
                <path id="Path_1119" d="M44.028 60.348l5.265-.586-.187.7-1.575.137-.54 2.016 1.293.918-.173.647-4.269-3.132zm2.915.308l-2.434.2v.013l2.005 1.4z" class="cls-1" transform="translate(-42.589 -31.424)"/>
                <path id="Path_1120" d="M51.255 54.064a2.334 2.334 0 0 1-.182.861 2.3 2.3 0 0 1-.574.829 2.223 2.223 0 0 1-.794.466 2.394 2.394 0 0 1-.913.115 2.765 2.765 0 0 1-.921-.218 3.519 3.519 0 0 1-.887-.538 2.542 2.542 0 0 1-.613-.741 2.149 2.149 0 0 1-.251-.9 2.271 2.271 0 0 1 .2-1.03 2.987 2.987 0 0 1 .381-.66 1.928 1.928 0 0 1 .519-.47 1.745 1.745 0 0 1 .651-.234 1.989 1.989 0 0 1 .785.052l-.256.6a1.3 1.3 0 0 0-.519-.026 1.158 1.158 0 0 0-.435.168 1.458 1.458 0 0 0-.353.328 2.039 2.039 0 0 0-.265.454 1.5 1.5 0 0 0 .1 1.448 2.077 2.077 0 0 0 .5.539 3.1 3.1 0 0 0 .671.39 2.492 2.492 0 0 0 .728.189 1.949 1.949 0 0 0 .706-.053 1.54 1.54 0 0 0 1.041-.924 1.762 1.762 0 0 0 .153-.678 1.415 1.415 0 0 0-.469-1.078 1.689 1.689 0 0 0-.547-.33l-.616 1.45-.509-.216.845-1.991 2.392 1.016-.162.381-.634-.081a1.629 1.629 0 0 1 .228.882z" class="cls-1" transform="translate(-43.293 -28.879)"/>
                <path id="Path_1121" d="M50.619 44.475l.475.283-1.407 2.363 1.348.8 1.311-2.2.475.283-1.311 2.2 1.466.873 1.417-2.377.476.283-1.753 2.945-4.24-2.528z" class="cls-1" transform="translate(-44.145 -26.7)"/>
                <path id="Path_1122" d="M53.133 40.286l4.2 1.409-2.233-3.828.567-.7 3.829 3.112-.393.483-3.185-2.589-.009.01 2.214 3.785-.353.434-4.16-1.389-.008.011 3.185 2.588-.392.482-3.828-3.111z" class="cls-1" transform="translate(-45.285 -24.443)"/>
                <path id="Path_1123" d="M61.472 31.964l.372.408-2.031 1.855 1.059 1.158 1.892-1.729.372.408-1.892 1.729 1.151 1.26 2.045-1.87.373.409-2.529 2.308-3.328-3.642z" class="cls-1" transform="translate(-47.26 -22.834)"/>
                <path id="Path_1124" d="M64.887 29.18l4.413 1.807.012-.008-2.28-3.288.511-.354 2.812 4.055-.591.409-4.374-1.785-.011.008 2.256 3.254-.511.354-2.81-4.054z" class="cls-1" transform="translate(-48.915 -21.404)"/>
                <path id="Path_1125" d="M70.6 26.2l-.255-.491 3.5-1.817.255.491-1.459.757 2.018 3.888-.582.3-2.018-3.888z" class="cls-1" transform="translate(-50.78 -20.338)"/>
                <path id="Path_1126" d="M79.258 22.746a1.4 1.4 0 0 0-.87.075 2.037 2.037 0 0 0-.366.183 1.081 1.081 0 0 0-.283.256.725.725 0 0 0-.141.33.8.8 0 0 0 .057.411.512.512 0 0 0 .257.3.991.991 0 0 0 .417.089 3.03 3.03 0 0 0 .528-.041q.286-.046.585-.085c.2-.026.4-.044.6-.053a1.861 1.861 0 0 1 .564.055 1.2 1.2 0 0 1 .479.247 1.4 1.4 0 0 1 .415 1.213 1.439 1.439 0 0 1-.261.587 1.962 1.962 0 0 1-.488.459 3.026 3.026 0 0 1-.607.316 2.871 2.871 0 0 1-.77.181 1.926 1.926 0 0 1-.719-.064 1.484 1.484 0 0 1-.6-.346 1.733 1.733 0 0 1-.428-.67l.582-.22a1.068 1.068 0 0 0 .731.69 1.325 1.325 0 0 0 .505.037 2.136 2.136 0 0 0 .529-.126 2.487 2.487 0 0 0 .4-.2 1.331 1.331 0 0 0 .326-.27.756.756 0 0 0 .121-.811.617.617 0 0 0-.274-.34.99.99 0 0 0-.427-.115 2.7 2.7 0 0 0-.532.028l-.588.082c-.2.028-.4.049-.593.062a2.061 2.061 0 0 1-.556-.033 1.016 1.016 0 0 1-.791-.693 1.3 1.3 0 0 1-.087-.659 1.32 1.32 0 0 1 .218-.562 1.8 1.8 0 0 1 .444-.449 2.531 2.531 0 0 1 .586-.315 2.637 2.637 0 0 1 .691-.167 1.593 1.593 0 0 1 .634.063 1.38 1.38 0 0 1 .535.318 1.758 1.758 0 0 1 .394.6l-.582.22a1.026 1.026 0 0 0-.635-.583z" class="cls-1" transform="translate(-52.823 -19.792)"/>
                <path id="Path_1127" d="M86.235 24.886l-.638.154-.473-1.961-2.538-2.387.759-.183 1.988 1.937.853-2.623.726-.175-1.15 3.277z" class="cls-1" transform="translate(-54.562 -19.028)"/>
                <path id="Path_1128" d="M92.837 19.691a1.39 1.39 0 0 0-.861-.144 1.983 1.983 0 0 0-.4.086 1.084 1.084 0 0 0-.339.178.729.729 0 0 0-.218.285.8.8 0 0 0-.047.412.509.509 0 0 0 .175.353 1 1 0 0 0 .382.19 3.1 3.1 0 0 0 .522.091q.288.027.588.063c.2.024.4.056.591.1a1.932 1.932 0 0 1 .533.194 1.211 1.211 0 0 1 .4.359 1.405 1.405 0 0 1 .1 1.279 1.455 1.455 0 0 1-.4.5 1.962 1.962 0 0 1-.587.323 2.982 2.982 0 0 1-.666.155 2.9 2.9 0 0 1-.792-.016 1.955 1.955 0 0 1-.68-.24 1.493 1.493 0 0 1-.5-.486 1.737 1.737 0 0 1-.248-.755l.618-.07a1.1 1.1 0 0 0 .18.519 1.085 1.085 0 0 0 .357.332 1.338 1.338 0 0 0 .48.162 2.1 2.1 0 0 0 .543.008 2.341 2.341 0 0 0 .438-.091 1.3 1.3 0 0 0 .386-.185.759.759 0 0 0 .319-.755.618.618 0 0 0-.18-.4 1 1 0 0 0-.386-.218 2.626 2.626 0 0 0-.522-.105l-.588-.063c-.2-.021-.4-.05-.59-.087a2.049 2.049 0 0 1-.529-.17 1.091 1.091 0 0 1-.4-.324 1.077 1.077 0 0 1-.2-.544 1.312 1.312 0 0 1 .079-.659 1.334 1.334 0 0 1 .352-.491 1.807 1.807 0 0 1 .54-.325 2.562 2.562 0 0 1 .647-.16 2.636 2.636 0 0 1 .71.012 1.593 1.593 0 0 1 .6.218 1.379 1.379 0 0 1 .438.442 1.719 1.719 0 0 1 .233.68l-.618.069a1.031 1.031 0 0 0-.46-.722z" class="cls-1" transform="translate(-56.95 -18.821)"/>
                <path id="Path_1129" d="M96.729 19.3l.012-.552 3.945.084-.012.552-1.643-.035-.094 4.379-.656-.014.093-4.38z" class="cls-1" transform="translate(-58.933 -18.751)"/>
                <path id="Path_1130" d="M106.848 19.348l-.065.549-2.731-.325-.184 1.557 2.545.3-.066.549-2.545-.3-.2 1.694 2.751.328-.065.549-3.4-.4.583-4.9z" class="cls-1" transform="translate(-60.834 -18.811)"/>
                <path id="Path_1131" d="M113.515 20.758l-.132.537-2.669-.661-.378 1.523 2.488.616-.132.536-2.488-.616-.411 1.656 2.689.667-.132.537-3.328-.825 1.186-4.788z" class="cls-1" transform="translate(-62.731 -19.118)"/>
                <path id="Path_1132" d="M117.713 22.122l-.15 4.425 3.029-3.232.83.343-1.888 4.558-.574-.238 1.57-3.792-.013-.006-2.993 3.2-.517-.214.146-4.382h-.013l-1.57 3.792-.57-.239 1.888-4.558z" class="cls-1" transform="translate(-64.577 -19.687)"/>
                <path id="Path_1133" d="M130.552 30.007a1.521 1.521 0 0 0-.584-.728 1.609 1.609 0 0 0-.716-.3 1.5 1.5 0 0 0-.68.07 1.929 1.929 0 0 0-.612.352 2.844 2.844 0 0 0-.505.557 3.189 3.189 0 0 0-.377.71 1.9 1.9 0 0 0-.129.711 1.489 1.489 0 0 0 .173.664 1.631 1.631 0 0 0 .528.571 1.463 1.463 0 0 0 .534.242 1.292 1.292 0 0 0 .527.006 1.356 1.356 0 0 0 .495-.207 1.868 1.868 0 0 0 .426-.393l.538.375a2.235 2.235 0 0 1-1.356.822 2.08 2.08 0 0 1-1.521-.428 2.379 2.379 0 0 1-.709-.735 1.98 1.98 0 0 1-.274-.852 2.339 2.339 0 0 1 .118-.912 3.511 3.511 0 0 1 .461-.909 3.322 3.322 0 0 1 .7-.743 2.444 2.444 0 0 1 .837-.422 2.065 2.065 0 0 1 .919-.037 2.356 2.356 0 0 1 .941.408 2.523 2.523 0 0 1 .542.5 1.976 1.976 0 0 1 .33.6 1.712 1.712 0 0 1 .082.667 1.826 1.826 0 0 1-.2.7l-.538-.376a1.221 1.221 0 0 0 .05-.913z" class="cls-1" transform="translate(-68.072 -21.729)"/>
                <path id="Path_1134" d="M137.017 34.5l-.373.408-2.031-1.854-1.057 1.158 1.893 1.729-.373.408-1.893-1.729-1.15 1.26 2.047 1.868-.372.408-2.531-2.311L134.5 32.2z" class="cls-1" transform="translate(-69.577 -22.908)"/>
                <path id="Path_1135" d="M140.854 38.754a1.63 1.63 0 0 1 .449 1.064 1.187 1.187 0 0 1-.465.916 1.491 1.491 0 0 1-.732.354 1.045 1.045 0 0 1-.775-.2l-.011.009a.894.894 0 0 1 .12.356.764.764 0 0 1-.038.313 1.072 1.072 0 0 1-.153.284 3.333 3.333 0 0 1-.225.268c-.086.085-.175.169-.267.253a3.074 3.074 0 0 0-.257.263 2.23 2.23 0 0 0-.209.281.834.834 0 0 0-.117.3l-.474-.559a.409.409 0 0 1 .1-.205 2.3 2.3 0 0 1 .2-.214l.257-.236a2.425 2.425 0 0 0 .252-.268c.08-.092.151-.183.217-.274a.8.8 0 0 0 .131-.283.638.638 0 0 0 0-.3.861.861 0 0 0-.195-.342l-1.037-1.222-1.607 1.363-.424-.5 3.762-3.191zm-1.618 1.554a.949.949 0 0 0 .337.189.739.739 0 0 0 .367.015.9.9 0 0 0 .395-.212.887.887 0 0 0 .33-.551.853.853 0 0 0-.255-.663l-1.054-1.244-1.312 1.113.884 1.045a2.6 2.6 0 0 0 .308.308z" class="cls-1" transform="translate(-70.942 -24.385)"/>
                <path id="Path_1136" d="M143.405 42.431l.462-.3 2.172 3.293-.46.3-.905-1.373-3.657 2.413-.362-.548 3.657-2.412z" class="cls-1" transform="translate(-72.506 -25.975)"/>
                <path id="Path_1137" d="M147.4 48.59l-4.322 2.378-.316-.575 4.322-2.379z" class="cls-1" transform="translate(-73.157 -27.794)"/>
                <path id="Path_1138" d="M149.879 53.9l-.505.224-1.045-2.364-1.429.64.916 2.073-.506.223-.916-2.073-2.067.914-.265-.6 4.511-2z" class="cls-1" transform="translate(-73.558 -28.698)"/>
                <path id="Path_1139" d="M151.2 57.611l-4.668 1.6-.214-.621 4.668-1.6z" class="cls-1" transform="translate(-74.257 -30.568)"/>
                <path id="Path_1140" d="M152.1 63.2a1.523 1.523 0 0 0 .05-.931 1.612 1.612 0 0 0-.334-.7 1.505 1.505 0 0 0-.553-.4 1.966 1.966 0 0 0-.692-.146 2.86 2.86 0 0 0-.748.077 3.2 3.2 0 0 0-.755.277 1.906 1.906 0 0 0-.57.443 1.482 1.482 0 0 0-.314.61 1.626 1.626 0 0 0 .012.778 1.474 1.474 0 0 0 .236.537 1.3 1.3 0 0 0 .39.355 1.363 1.363 0 0 0 .506.176 1.882 1.882 0 0 0 .58-.009l.151.639a2.241 2.241 0 0 1-1.56-.293 2.078 2.078 0 0 1-.846-1.334 2.355 2.355 0 0 1-.038-1.02 1.979 1.979 0 0 1 .363-.817 2.354 2.354 0 0 1 .7-.6 3.453 3.453 0 0 1 .949-.37 3.3 3.3 0 0 1 1.02-.084 2.44 2.44 0 0 1 .907.245 2.08 2.08 0 0 1 .709.585 2.365 2.365 0 0 1 .429.932 2.548 2.548 0 0 1 .068.737 1.967 1.967 0 0 1-.155.668 1.705 1.705 0 0 1-.384.552 1.833 1.833 0 0 1-.623.388l-.15-.638a1.222 1.222 0 0 0 .652-.657z" class="cls-1" transform="translate(-74.646 -31.616)"/>
                <path id="Path_1141" d="M153.767 69.96l-4.727 2.392-.069-.722 1.427-.679-.2-2.077-1.532-.408-.066-.666 5.1 1.439zm-2.839.732l2.211-1.039v-.014l-2.371-.612z" class="cls-1" transform="translate(-74.963 -33.908)"/>
                <path id="Path_1142" d="M153.507 73.151l.553-.006.044 3.945-.553.006-.018-1.645-4.381.048-.008-.656 4.381-.048z" class="cls-1" transform="translate(-75.13 -35.56)"/>
                <path id="Path_1143" d="M153.842 80.839l-4.916-.419.055-.654 4.916.419z" class="cls-1" transform="translate(-75.063 -37.606)"/>
                <path id="Path_1144" d="M152.781 86.666l-.544-.1.478-2.708-1.545-.272-.446 2.524-.544-.1.446-2.524-1.681-.3-.482 2.728-.544-.1.595-3.375 4.859.858z" class="cls-1" transform="translate(-74.751 -38.437)"/>
            </g>
        </g>
        <g id="Group_1695" transform="translate(56.96 45.821)">
            <g id="Group_1694">
                <g id="Group_1693">
                    <path id="Rectangle_1719" d="M0 0H49.161V7.849H0z" class="cls-1" transform="translate(.001)"/>
                    <path id="Rectangle_1720" d="M0 0H49.161V1.309H0z" class="cls-1" transform="translate(.001 10.463)"/>
                    <path id="Rectangle_1721" d="M0 0H49.161V2.614H0z" class="cls-1" transform="translate(.001 13.079)"/>
                    <g id="Group_1692" transform="translate(0 19.617)">
                        <g id="Group_1691">
                            <path id="Path_1145" d="M78.7 86.317v6.54h1.254v-4.722l5.157 4.722h1.047v-6.54H84.9v4.723l-5.153-4.722z" class="cls-1" transform="translate(-68.294 -86.317)"/>
                            <path id="Path_1146" d="M132.089 92.857V91.7h-4.776v-5.383h-1.258v6.54z" class="cls-1" transform="translate(-82.926 -86.317)"/>
                            <path id="Path_1147" d="M95.738 92.857h.957l3.59-6.54h-1.413l-2.64 4.977-2.638-4.977h-1.438z" class="cls-1" transform="translate(-72.451 -86.317)"/>
                            <path id="Path_1148" d="M114.462 86.317a3.857 3.857 0 0 0-2.667.7 2.387 2.387 0 0 0-.711 1.866v1.4a2.393 2.393 0 0 0 .711 1.868 3.857 3.857 0 0 0 2.667.7h4.224v-3.769h-3.966v1.178h2.709v1.44h-3.3a2.008 2.008 0 0 1-1.439-.417 1.472 1.472 0 0 1-.35-1.1V88.99a1.476 1.476 0 0 1 .35-1.1 2.008 2.008 0 0 1 1.439-.415h4.559v-1.158z" class="cls-1" transform="translate(-78.3 -86.317)"/>
                            <path id="Path_1149" fill="#fff" fill-rule="evenodd" d="M64.894 87.472h3.367a2.01 2.01 0 0 1 1.437.415A1.444 1.444 0 0 1 70.049 89v1.166a1.442 1.442 0 0 1-.351 1.115 2.011 2.011 0 0 1-1.437.417h-3.367zm6.406 1.412a2.4 2.4 0 0 0-.711-1.866 3.863 3.863 0 0 0-2.667-.7h-4.284v6.54h4.286a3.863 3.863 0 0 0 2.667-.7 2.4 2.4 0 0 0 .711-1.868z" transform="translate(-63.638 -86.317)"/>
                        </g>
                        <path id="Rectangle_1722" d="M0 0H1.474V1.474H0z" class="cls-1" transform="translate(28.841 2.556)"/>
                    </g>
                </g>
            </g>
        </g>
        <path id="Path_1150" d="M65.957 110.6a34.9 34.9 0 0 1-8.515-7.042l-.006.006a35.019 35.019 0 0 1-7.129-12.7l-1.147.256a36.283 36.283 0 0 0 13.4 18.712h.053a36 36 0 0 0 3.339 2.127z" class="cls-1" transform="translate(-2.204 -22.283)"/>
        <path id="Path_1151" d="M64.739 114.048a37.539 37.539 0 0 1-10.751-8.566l-.011.009a37.656 37.656 0 0 1-7.6-13.761l-1.154.249A38.947 38.947 0 0 0 56.9 110.1h.046a39.175 39.175 0 0 0 7.789 5.287z" class="cls-1" transform="translate(-.986 -22.552)"/>
        <path id="Path_1152" d="M124.965 110.6a34.885 34.885 0 0 0 8.514-7.042l.007.006a35.029 35.029 0 0 0 7.129-12.7l1.146.256a36.275 36.275 0 0 1-13.4 18.712h-.061a36.085 36.085 0 0 1-3.338 2.127z" class="cls-1" transform="translate(-25.629 -22.283)"/>
        <path id="Path_1153" d="M124.965 114.048a37.526 37.526 0 0 0 10.75-8.566l.012.009a37.645 37.645 0 0 0 7.6-13.761l1.154.249A38.94 38.94 0 0 1 132.8 110.1h-.047a39.15 39.15 0 0 1-7.788 5.287z" class="cls-1" transform="translate(-25.629 -22.552)"/>
        <g id="Group_1696" transform="translate(67.825 88.589)">
            <path id="Path_1154" d="M80.019 119.993v4.934h-.657v-4.934z" class="cls-1" transform="translate(-79.362 -119.876)"/>
            <path id="Path_1155" d="M84.506 120.614a1.392 1.392 0 0 0-.839-.238 2.012 2.012 0 0 0-.408.041 1.09 1.09 0 0 0-.356.138.739.739 0 0 0-.249.259.8.8 0 0 0-.093.4.512.512 0 0 0 .135.37.994.994 0 0 0 .359.231 2.96 2.96 0 0 0 .509.149c.188.039.381.082.577.128s.388.1.576.162a1.938 1.938 0 0 1 .508.252 1.2 1.2 0 0 1 .359.4 1.405 1.405 0 0 1-.041 1.282 1.453 1.453 0 0 1-.452.456 1.958 1.958 0 0 1-.618.256 3 3 0 0 1-.681.079 2.894 2.894 0 0 1-.784-.1 1.944 1.944 0 0 1-.65-.314 1.5 1.5 0 0 1-.442-.54 1.738 1.738 0 0 1-.162-.777h.622a1.073 1.073 0 0 0 .439.905 1.335 1.335 0 0 0 .459.214 2.1 2.1 0 0 0 .539.069 2.443 2.443 0 0 0 .446-.041 1.3 1.3 0 0 0 .4-.142.758.758 0 0 0 .4-.715.618.618 0 0 0-.135-.414.978.978 0 0 0-.359-.259 2.6 2.6 0 0 0-.508-.163l-.577-.128q-.293-.065-.577-.152a2.062 2.062 0 0 1-.507-.228 1.018 1.018 0 0 1-.495-.929 1.3 1.3 0 0 1 .152-.645 1.332 1.332 0 0 1 .4-.45 1.822 1.822 0 0 1 .574-.263 2.545 2.545 0 0 1 .661-.086 2.66 2.66 0 0 1 .7.09 1.614 1.614 0 0 1 .569.283 1.363 1.363 0 0 1 .387.487 1.734 1.734 0 0 1 .155.7h-.622a1.027 1.027 0 0 0-.371-.767z" class="cls-1" transform="translate(-80.101 -119.823)"/>
            <path id="Path_1156" d="M88.641 121.436a2.439 2.439 0 0 1 .445-.826 2.191 2.191 0 0 1 .739-.574 2.581 2.581 0 0 1 2.059 0 2.184 2.184 0 0 1 .739.574 2.441 2.441 0 0 1 .446.826 3.232 3.232 0 0 1 0 1.942 2.434 2.434 0 0 1-.446.826 2.133 2.133 0 0 1-.739.57 2.62 2.62 0 0 1-2.059 0 2.139 2.139 0 0 1-.739-.57 2.433 2.433 0 0 1-.445-.826 3.232 3.232 0 0 1 0-1.942zm.6 1.707a1.973 1.973 0 0 0 .3.653 1.541 1.541 0 0 0 .531.466 1.788 1.788 0 0 0 1.548 0 1.543 1.543 0 0 0 .532-.466 1.987 1.987 0 0 0 .3-.653 2.847 2.847 0 0 0 0-1.472 1.994 1.994 0 0 0-.3-.653 1.55 1.55 0 0 0-.532-.466 1.788 1.788 0 0 0-1.548 0 1.548 1.548 0 0 0-.531.466 1.98 1.98 0 0 0-.3.653 2.828 2.828 0 0 0 0 1.472z" class="cls-1" transform="translate(-82.183 -119.823)"/>
            <path id="Path_1157" d="M100.313 124.313a.976.976 0 0 0 .608.193.876.876 0 0 0 .808-.466 3.115 3.115 0 0 0 .3-1.427l-.014-.014a1.281 1.281 0 0 1-1.133.677 1.708 1.708 0 0 1-.663-.121 1.362 1.362 0 0 1-.487-.334 1.41 1.41 0 0 1-.3-.518 2.106 2.106 0 0 1-.1-.663 1.732 1.732 0 0 1 .117-.647 1.448 1.448 0 0 1 .332-.5 1.514 1.514 0 0 1 .511-.329 1.757 1.757 0 0 1 .65-.117 1.944 1.944 0 0 1 .65.107 1.255 1.255 0 0 1 .532.37 1.918 1.918 0 0 1 .363.715 4.115 4.115 0 0 1 .135 1.15 3.858 3.858 0 0 1-.4 1.952 1.393 1.393 0 0 1-1.3.681 1.637 1.637 0 0 1-1.023-.311 1.263 1.263 0 0 1-.463-.947h.587a.745.745 0 0 0 .29.549zm1.544-3.061a1.077 1.077 0 0 0-.193-.356.916.916 0 0 0-.314-.245 1 1 0 0 0-.435-.09.948.948 0 0 0-.446.1.838.838 0 0 0-.3.259 1.1 1.1 0 0 0-.166.37 1.789 1.789 0 0 0-.052.435 1.054 1.054 0 0 0 .073.387 1.105 1.105 0 0 0 .2.332.964.964 0 0 0 .3.231.868.868 0 0 0 .39.086.968.968 0 0 0 .415-.086.946.946 0 0 0 .318-.235 1.029 1.029 0 0 0 .2-.345 1.226 1.226 0 0 0 .069-.411 1.377 1.377 0 0 0-.058-.432z" class="cls-1" transform="translate(-85.533 -119.891)"/>
            <path id="Path_1158" d="M105.536 121.978a3.733 3.733 0 0 1 .069-.567 2.771 2.771 0 0 1 .159-.525 1.394 1.394 0 0 1 .283-.435 1.3 1.3 0 0 1 .453-.3 1.984 1.984 0 0 1 1.306 0 1.294 1.294 0 0 1 .453.3 1.406 1.406 0 0 1 .283.435 2.771 2.771 0 0 1 .159.525 3.918 3.918 0 0 1 .069.567q.013.29.014.56t-.014.56a3.9 3.9 0 0 1-.069.567 2.663 2.663 0 0 1-.159.522 1.406 1.406 0 0 1-.283.432 1.253 1.253 0 0 1-.449.294 2.055 2.055 0 0 1-1.309 0 1.256 1.256 0 0 1-.453-.294 1.394 1.394 0 0 1-.283-.432 2.663 2.663 0 0 1-.159-.522 3.712 3.712 0 0 1-.069-.567q-.013-.29-.014-.56t.013-.56zm.625 1.171a2.582 2.582 0 0 0 .111.643 1.214 1.214 0 0 0 .3.508.916.916 0 0 0 1.161 0 1.214 1.214 0 0 0 .3-.508 2.614 2.614 0 0 0 .111-.643c.011-.228.017-.434.017-.618v-.4a3.53 3.53 0 0 0-.035-.435 3.323 3.323 0 0 0-.09-.426 1.131 1.131 0 0 0-.173-.363.893.893 0 0 0-.287-.252.967.967 0 0 0-.843 0 .893.893 0 0 0-.287.252 1.131 1.131 0 0 0-.173.363 3.209 3.209 0 0 0-.09.426 3.4 3.4 0 0 0-.035.435v.4q-.004.276.013.618z" class="cls-1" transform="translate(-87.446 -119.891)"/>
            <path id="Path_1159" d="M111.646 121.978a3.823 3.823 0 0 1 .069-.567 2.823 2.823 0 0 1 .159-.525 1.4 1.4 0 0 1 .284-.435 1.29 1.29 0 0 1 .452-.3 1.984 1.984 0 0 1 1.306 0 1.287 1.287 0 0 1 .453.3 1.394 1.394 0 0 1 .283.435 2.771 2.771 0 0 1 .159.525 3.735 3.735 0 0 1 .069.567c.01.193.014.38.014.56s0 .366-.014.56a3.714 3.714 0 0 1-.069.567 2.663 2.663 0 0 1-.159.522 1.394 1.394 0 0 1-.283.432 1.247 1.247 0 0 1-.449.294 2.055 2.055 0 0 1-1.309 0 1.247 1.247 0 0 1-.452-.294 1.4 1.4 0 0 1-.284-.432 2.711 2.711 0 0 1-.159-.522 3.8 3.8 0 0 1-.069-.567q-.013-.29-.014-.56t.013-.56zm.626 1.171a2.582 2.582 0 0 0 .11.643 1.228 1.228 0 0 0 .3.508.916.916 0 0 0 1.161 0 1.222 1.222 0 0 0 .3-.508 2.614 2.614 0 0 0 .11-.643q.018-.342.018-.618v-.4a3.4 3.4 0 0 0-.035-.435 3.322 3.322 0 0 0-.089-.426 1.161 1.161 0 0 0-.173-.363.9.9 0 0 0-.287-.252.967.967 0 0 0-.843 0 .908.908 0 0 0-.287.252 1.131 1.131 0 0 0-.173.363 3.321 3.321 0 0 0-.09.426 3.4 3.4 0 0 0-.034.435v.4c-.006.184-.001.39.012.618z" class="cls-1" transform="translate(-89.334 -119.891)"/>
            <path id="Path_1160" d="M118.463 124.942v-3.51h-1.271v-.47a3 3 0 0 0 .484-.038 1.306 1.306 0 0 0 .425-.142.962.962 0 0 0 .321-.283 1.075 1.075 0 0 0 .18-.456h.449v4.9z" class="cls-1" transform="translate(-91.052 -119.891)"/>
        </g>
    </g>
</svg>
