<svg xmlns="http://www.w3.org/2000/svg" width="48" height="48" viewBox="0 0 48 48">
    <g transform="translate(-651.419 11.779)">
        <circle cx="24" cy="24" r="24" fill="#4a4a4a" transform="translate(651.419 -11.779)"/>
        <path fill="#fff" d="M668.819 23.121h-4.6v-14.8h4.6zm-2.5-16.7a2.577 2.577 0 0 1-2.8-2.6 2.808 2.808 0 0 1 5.6 0 2.525 2.525 0 0 1-2.8 2.6zm21 16.7h-5.3v-7.7c0-2-.8-3.4-2.6-3.4a2.643 2.643 0 0 0-2.5 1.8 4.481 4.481 0 0 0-.1 1.2v8h-5.2s.1-13.6 0-14.8h5.2v2.3c.3-1 2-2.5 4.6-2.5 3.3 0 5.9 2.1 5.9 6.7z"/>
    </g>
</svg>
