<svg xmlns="http://www.w3.org/2000/svg" width="65.283" height="52.675" viewBox="0 0 65.283 52.675">
    <defs>
        <style>
            .cls-1{fill:#fff}
        </style>
    </defs>
    <g id="LOGO" transform="translate(-3151.522 -940.265)">
        <path id="Path_947" d="M3219.229 950.058h-1.931c-2.5-.01-5.007-.054-7.509-.02-1.023.014-2.042.228-3.067.288-1.351.08-1.189.626-1.031 1.8a40.2 40.2 0 0 1 16.089-.934c-1.2 3.1-2.346 6.033-3.566 9.174l-5.952-4 .023-.317 4.552-2.043-.056-.225c-.978.233-1.961.444-2.931.706-.927.249-1.836.566-2.761.826a1.968 1.968 0 0 1-1.944-1.31l6.319-1.562-.021-.157c-2.053.285-4.112.54-6.159.866-1.116.178-2.185.536-3.26-.245a1.92 1.92 0 0 0-1.415-.184c-.927.223-1.814.608-3.054 1.046l1.385.725-.09.4a25.73 25.73 0 0 0-11.652 8.982c.478-.3.961-.583 1.433-.889 1.491-.965 2.969-1.951 4.475-2.893a.929.929 0 0 1 .809-.068c.593.4 1.121.891 1.751 1.411l-5.175 4.562.165.217c1.129-.706 2.254-1.417 3.386-2.118.795-.493 1.581-1.005 2.409-1.437a1.08 1.08 0 0 1 .9.047c.854.509 1.66 1.1 2.491 1.648.463.305.427.593.032.931-.892.767-1.795 1.524-2.652 2.328-1.666 1.562-3.322 3.136-4.943 4.745a1.009 1.009 0 0 1-1.485.216c-2.69-1.747-5.428-3.421-8.1-5.2-1.143-.759-2.166-1.7-3.31-2.611a67.828 67.828 0 0 1 17.945-11.316 47.973 47.973 0 0 0-.524-6.679 6.806 6.806 0 0 0-6.406-5.718 1.149 1.149 0 0 1-.705-.327 4.036 4.036 0 0 1 .969-.364c3.583-.366 6.831.313 9.195 3.284a21.954 21.954 0 0 1 1.466 2.69 1.07 1.07 0 0 0 .706.489c1.745.13 3.5.12 5.239.319a16.476 16.476 0 0 1 3.4.838c1.557.532 3.069 1.19 4.6 1.795z" class="cls-1" transform="translate(-6.659)"/>
        <path id="Path_948" d="M3190.256 954.2c-1.942.584-3.679 1.063-5.387 1.631-2.082.692-4.161 1.4-6.2 2.205a73.26 73.26 0 0 0-11.825 6.081c-1.13.7-2.233 1.45-3.336 2.194a1.193 1.193 0 0 1-1.494.134c-3.23-2.13-6.473-4.24-9.711-6.357l-.78-.507c1.184-.618 2.074-1.188 3.039-1.569 3.529-1.388 7.035-2.868 10.644-4.018 3.547-1.13 7.188-1.989 10.826-2.8 2.429-.542 4.922-.8 7.392-1.161a2.468 2.468 0 0 1 2.1.533c1.476 1.243 3.056 2.363 4.732 3.634z" class="cls-1" transform="translate(0 -2.034)"/>
        <path id="Path_949" d="M3154.877 999.1c0-1.241-.016-2.482.007-3.723.01-.589-.069-1.008-.809-1.022-.155 0-.423-.4-.419-.613 0-.234.262-.668.4-.665a55.81 55.81 0 0 1 6.675.271c2.539.355 3.521 3.418 3.242 5.45a8.671 8.671 0 0 1-1.087 3.1c-.864 1.488-2.486 1.7-4.027 1.848-1.051.1-2.117 0-3.176.04-.654.023-.835-.27-.822-.872.028-1.271.009-2.542.009-3.814zm2.122-4.393c0 2.321-.005 4.494.012 6.667a.661.661 0 0 0 .259.5 3.547 3.547 0 0 0 4.026-1.329 5.182 5.182 0 0 0 .362-3.605 2.864 2.864 0 0 0-2.45-2.224c-.687-.054-1.382-.004-2.208-.004z" class="cls-1" transform="translate(-.446 -11.038)"/>
        <path id="Path_950" d="M3169.925 1001.772c.25 1.349 1.6 1.751 2.867.936.531-.342.819-.347 1.142.23.466.833.416 1.016-.482 1.4a4.714 4.714 0 0 1-3.492.245 3.016 3.016 0 0 1-2.043-2.141c-.746-2.837.586-5.517 3.74-5.312 2.569.168 3.327 2.125 3.044 4.209-.024.172-.473.4-.73.408-1.325.047-2.651.025-4.046.025zm1.359-1.333c.492-.255 1.074-.37 1.265-.707.208-.368-.7-1.211-1.2-1.033a6 6 0 0 0-1.427 1.051z" class="cls-1" transform="translate(-3.384 -11.883)"/>
        <path id="Path_951" d="M3218.743 1001.772c.563 1.409 1.6 1.774 2.806.978.775-.511 1.11-.27 1.448.426.359.743-.117.947-.666 1.169a4.72 4.72 0 0 1-3.471.238 3.162 3.162 0 0 1-2.073-2.332c-.749-2.856.974-5.267 3.72-5.152a3.352 3.352 0 0 1 3.076 4.283c-.06.191-.5.363-.768.371-1.315.039-2.639.019-4.072.019zm2.723-1.58c.124-.967-.424-1.461-1.085-1.463-.5 0-1 .512-1.473.837-.027.018.188.586.315.6.738.057 1.485.026 2.243.026z" class="cls-1" transform="translate(-13.603 -11.877)"/>
        <path id="Path_952" d="M3189.892 1001.883c.357 1.444 1.071 1.56 3.635.515l.854 1.421a5.343 5.343 0 0 1-4.4.776 2.809 2.809 0 0 1-2.017-2.038 7.059 7.059 0 0 1-.1-2.637c.333-2.637 3.75-3.727 5.872-1.94a4.346 4.346 0 0 1 .956 3.342 1.1 1.1 0 0 1-.842.42c-1.269.055-2.54.04-3.81.055-.05.003-.099.055-.148.086zm.043-1.757h2.673a1.311 1.311 0 0 0-1.254-1.45c-.678-.094-1.314.596-1.419 1.45z" class="cls-1" transform="translate(-7.579 -11.878)"/>
        <path id="Path_953" d="M3199.1 1001.69c0-.515-.013-1.03 0-1.545.021-.673.138-1.365-.85-1.5-.117-.016-.255-.506-.227-.76.021-.189.3-.5.453-.5.831.017 1.659.128 2.489.176a1.476 1.476 0 0 0 .615-.151 2.554 2.554 0 0 1 3.093.414 1.618 1.618 0 0 1 .518.826c.108 1.776.2 3.556.191 5.335 0 .823-.74.6-1.255.629-.532.034-.779-.187-.771-.738.018-1.363 0-2.726.016-4.089 0-.565-.088-1.059-.773-1.109a1.523 1.523 0 0 0-1.616 1.2c-.013 1.3-.025 2.6 0 3.907.013.621-.2.872-.845.844-.6-.027-1.1-.028-1.049-.846.041-.698.011-1.397.011-2.093z" class="cls-1" transform="translate(-9.717 -11.875)"/>
        <path id="Path_954" d="M3213.659 1001.984a11.023 11.023 0 0 1 .59 1.251.568.568 0 0 1-.208.516 4.128 4.128 0 0 1-3.554.256c-.8-.391-.82-1.224-.889-1.958-.074-.781-.011-1.573-.029-2.361-.012-.561.226-1.19-.612-1.493-.2-.074-.192-.741-.286-1.164l.909-.275c-.288-1.307.935-1.451 1.583-2.04.021-.019.466.269.488.443a13.974 13.974 0 0 1 .025 1.7 8.023 8.023 0 0 1 1.585.03c.25.054.619.437.6.642-.025.3-.352.567-.555.846-.011.015-.059 0-.089.006-.492.053-1.263-.059-1.413.2a3.808 3.808 0 0 0-.157 1.673c-.015.424-.015.849 0 1.272.052 1.186.41 1.369 1.48.772.133-.073.259-.153.532-.316z" class="cls-1" transform="translate(-11.943 -11.379)"/>
        <path id="Path_955" d="M3181.716 1001.536c.386-1.014.763-2.031 1.159-3.041.445-1.131.847-1.3 2.178-.863-.316.8-.617 1.606-.947 2.4-.546 1.308-1.12 2.606-1.663 3.916a1.034 1.034 0 0 1-1.07.759 1 1 0 0 1-1.039-.8c-.519-1.353-.957-2.738-1.53-4.067-.188-.437-.716-.719-1.04-1.112a1.264 1.264 0 0 1-.342-.776c.014-.186.352-.348.549-.517.017-.015.059 0 .09 0 1.957-.122 2.1-.013 2.684 1.87.236.764.513 1.516.77 2.273z" class="cls-1" transform="translate(-5.413 -11.94)"/>
        <path id="Path_956" d="M3230.5 997.523c.724-.547 1.581-.722 1.987-.028.25.428-.034 1.17-.082 1.822-1.452-.417-2.292.249-2.384 1.7-.059.9-.044 1.815-.02 2.721.022.853-.514.874-1.141.883s-.95-.186-.933-.884c.036-1.36.046-2.724-.017-4.082-.016-.337-.37-.651-.537-.992a2.432 2.432 0 0 1-.321-.906c0-.127.367-.385.565-.384.863.003 1.725.082 2.883.15z" class="cls-1" transform="translate(-15.785 -11.865)"/>
        <path id="Path_957" d="M3179.114 986.033c.579-.078.831-.128 1.086-.142.755-.039 1.559-.182 2.242-.166a20.476 20.476 0 0 0 3.374-.026c.675-.093 1.318.486 1.276 1.428-.043.965.031 1.935-.01 2.9-.008.2-.306.384-.471.575-.188-.206-.518-.4-.54-.619-.073-.72.048-1.463-.066-2.173-.065-.4-.434-1.056-.681-1.062a.967.967 0 0 0-1.1 1.105 12.988 12.988 0 0 1-.015 2.177.8.8 0 0 1-.576.541.836.836 0 0 1-.625-.524c-.076-.842 0-1.7-.068-2.539-.024-.281-.317-.539-.487-.808-.35.263-.939.481-1 .8a11.8 11.8 0 0 0-.044 2.353c0 .433-.033.755-.62.762-.6.006-.659-.3-.709-.785-.138-1.256.558-2.655-.966-3.797z" class="cls-1" transform="translate(-5.767 -9.493)"/>
        <path id="Path_958" d="M3169.248 990.388c-1.48.487-2.47.122-2.921-1.054-.6-1.575.073-3.242 1.251-3.588a1.762 1.762 0 0 1 .606-.139 19.98 19.98 0 0 1 2.059.285.653.653 0 0 1 .423.453c-.042 1.711-.036 3.431-.227 5.129a1.89 1.89 0 0 1-2.379 1.588 16.278 16.278 0 0 1-1.773-.562c.263-.621.259-1.346 1.206-.71a1.465 1.465 0 0 0 1.332.049c.358-.244.474-.846.695-1.293zm.327-2.515a3.748 3.748 0 0 0-.819-1 1.259 1.259 0 0 0-.966.112 10.078 10.078 0 0 0-.063 2.265c.013.138.621.367.9.3.802-.176.757-.875.948-1.676z" class="cls-1" transform="translate(-3.047 -9.475)"/>
        <path id="Path_959" d="M3217.452 988.709c.331 1.073.861 1.25 1.61.953.224-.089.453-.281.664-.259a.885.885 0 0 1 .592.4.622.622 0 0 1-.126.59 2.735 2.735 0 0 1-3.605-.431 2.849 2.849 0 0 1 .345-3.761 2.36 2.36 0 0 1 2.782-.271 2 2 0 0 1 1.017 2.226.854.854 0 0 1-.611.532c-.844.058-1.693.021-2.668.021zm1.754-1.117l.246-.192c-.274-.242-.558-.692-.818-.679a3.389 3.389 0 0 0-1.176.563l.119.308z" class="cls-1" transform="translate(-13.481 -9.473)"/>
        <path id="Path_960" d="M3201.8 988.67h-3.1c.158 1.285.689 1.4 2.392.646.816.856.77.96-.619 1.4a2.419 2.419 0 0 1-2.867-.919 2.9 2.9 0 0 1 .311-3.43 2.38 2.38 0 0 1 2.988-.407c.882.49 1.164 1.29.895 2.71zm-1.25-1.031l.194-.3c-.382-.233-.759-.63-1.149-.645-.314-.013-.646.437-.97.683l.162.258z" class="cls-1" transform="translate(-9.545 -9.476)"/>
        <path id="Path_961" d="M3191.714 988.688c.3 1.011.83 1.307 1.561 1.009.2-.08.387-.26.573-.25.237.013.586.117.663.284a.741.741 0 0 1-.173.7 2.879 2.879 0 0 1-3.007.02 2.493 2.493 0 0 1-1.01-2.464 2.323 2.323 0 0 1 1.661-2.213c1.818-.657 3.306.707 3.01 2.912zm1.842-1.069l.2-.26c-.349-.24-.7-.666-1.047-.668s-.694.424-1.042.662l.142.266z" class="cls-1" transform="translate(-8.105 -9.476)"/>
        <path id="Path_962" d="M3174.244 988.667c.356 1.308.585 1.357 2.453.627.733.823.688.976-.4 1.35a2.421 2.421 0 0 1-3.438-1.721 2.676 2.676 0 0 1 1.767-3.231 2.34 2.34 0 0 1 2.259.563 1.858 1.858 0 0 1 .585 1.972c-.033.178-.389.409-.609.422-.861.051-1.727.018-2.617.018zm-.02-1.336l.149.248h1.782l.125-.289c-.332-.218-.674-.621-.993-.6-.364.016-.709.41-1.063.641z" class="cls-1" transform="translate(-4.436 -9.471)"/>
        <path id="Path_963" d="M3195.071 947.484c1.151-.126 2.3-.313 3.453-.358a2.252 2.252 0 0 1 2.138 1.985c.086.857.192 1.713.29 2.568l-.3.218-5.691-4.181z" class="cls-1" transform="translate(-9.078 -1.434)"/>
        <path id="Path_964" d="M3208.727 988.526a7.759 7.759 0 0 1-.027 1.447c-.045.232-.423.606-.559.57-.261-.069-.624-.365-.651-.6a20.024 20.024 0 0 1-.046-2.355c0-.445-.006-.965-.587-.895-.48.059-1.1.139-1.029.962a11.887 11.887 0 0 1-.014 2.264.967.967 0 0 1-.583.65c-.472.143-.715-.135-.7-.648.022-.694 0-1.391.009-2.086 0-.512.1-1.05-.568-1.275a.4.4 0 0 1-.166-.358.6.6 0 0 1 .377-.307c.326-.047.664 0 .994-.025a7.5 7.5 0 0 0 1.471-.183 1.572 1.572 0 0 1 2.079 1.479c.011.453 0 .907 0 1.36z" class="cls-1" transform="translate(-10.925 -9.477)"/>
        <path id="Path_965" d="M3212.525 983.654c.154.459.274.63.25.778-.125.771.108 1.145.957 1.055.187-.02.4.238.6.369-.206.176-.431.521-.613.5-.976-.116-1.039.426-.952 1.152a6.159 6.159 0 0 1 .008.817c-.013.716-.008 1.375 1.031.831.129-.068.581.144.595.261.029.237-.069.645-.239.727-1.266.612-2.9.388-2.727-1.606.067-.791.438-1.758-.45-2.429a.352.352 0 0 1-.044-.339c.472-.654.959-1.292 1.584-2.116z" class="cls-1" transform="translate(-12.413 -9.068)"/>
    </g>
</svg>
