<svg xmlns="http://www.w3.org/2000/svg" width="151.811" height="43.159" viewBox="0 0 151.811 43.159">
    <defs>
        <style>
            .cls-1{fill:#fff}.cls-2{fill:#ff8300}.cls-4{fill:#6f6f6e}
        </style>
    </defs>
    <g id="Powered_by_DV" transform="translate(0 .005)">
        <g id="Laag_1-2" transform="translate(0 -.005)">
            <g id="Group_1686" transform="translate(32.645 30.796)">
                <path id="Path_1076" d="M308.187 64.015a2.135 2.135 0 0 1 .812.807 2.248 2.248 0 0 1 .295 1.145 2.285 2.285 0 0 1-.3 1.15 2.2 2.2 0 0 1-.822.822 2.339 2.339 0 0 1-2.291 0 2.172 2.172 0 0 1-.812-.822 2.31 2.31 0 0 1 0-2.276 2.185 2.185 0 0 1 .817-.822 2.223 2.223 0 0 1 1.15-.3 2.25 2.25 0 0 1 1.151.296zm-.135 3.707a2.064 2.064 0 0 0 .735-2.784 1.883 1.883 0 0 0-.72-.725 1.991 1.991 0 0 0-1.029-.266 2.035 2.035 0 0 0-1.034.266 1.972 1.972 0 0 0-.73.735 2.1 2.1 0 0 0 0 2.044 2.049 2.049 0 0 0 2.777.729zm-.029-1.687a.844.844 0 0 1-.425.3l.6.923h-.343l-.556-.855h-.812v.855h-.333v-2.572h1a1.131 1.131 0 0 1 .749.232.768.768 0 0 1 .275.623.818.818 0 0 1-.155.5zm-.367-.063a.542.542 0 0 0 .188-.44.513.513 0 0 0-.188-.425.842.842 0 0 0-.527-.15h-.652v1.165h.652a.812.812 0 0 0 .527-.14z" class="cls-1" transform="translate(-190.127 -63.719)"/>
                <path id="Path_1077" d="M67.55 78.54H68v5.152h-.45z" class="cls-1" transform="translate(-67.55 -71.378)"/>
                <path id="Path_1078" d="M77.365 78.54v5.152h-.382l-3.47-4.349v4.349h-.483V78.54h.387l3.46 4.349V78.54z" class="cls-1" transform="translate(-70.382 -71.378)"/>
                <path id="Path_1079" d="M87.109 78.946v2.122h2.745v.391h-2.745v2.233h-.459V78.54h3.55v.406z" class="cls-1" transform="translate(-77.419 -71.378)"/>
                <path id="Path_1080" d="M97.188 83.324a2.63 2.63 0 0 1-.981-3.615 2.523 2.523 0 0 1 .967-.967 2.8 2.8 0 0 1 1.392-.343 2.775 2.775 0 0 1 1.387.343 2.523 2.523 0 0 1 .967.967 2.63 2.63 0 0 1-.981 3.615 2.824 2.824 0 0 1-1.387.343 2.855 2.855 0 0 1-1.364-.343zm2.547-.353a2.113 2.113 0 0 0 .817-.793 2.324 2.324 0 0 0 0-2.267 2.135 2.135 0 0 0-.817-.788 2.445 2.445 0 0 0-2.31 0 2.056 2.056 0 0 0-.807.793 2.285 2.285 0 0 0 0 2.262 2.056 2.056 0 0 0 .807.793 2.518 2.518 0 0 0 2.31 0z" class="cls-1" transform="translate(-82.173 -71.305)"/>
                <path id="Path_1081" d="M114.195 83.689L112.972 82a3.517 3.517 0 0 1-.483.029h-1.45v1.662h-.459v-5.154h1.933a2.377 2.377 0 0 1 1.551.483 1.567 1.567 0 0 1 .585 1.266 1.625 1.625 0 0 1-.314 1.02 1.77 1.77 0 0 1-.9.6l1.3 1.783zm-.483-2.416a1.387 1.387 0 0 0 .04-1.961l-.04-.04a1.932 1.932 0 0 0-1.242-.343h-1.45v2.73h1.45a1.9 1.9 0 0 0 1.266-.372z" class="cls-1" transform="translate(-89.785 -71.375)"/>
                <path id="Path_1082" d="M128.064 78.54v5.152h-.449V79.4l-2.122 3.615h-.242l-2.122-3.567v4.243h-.449V78.54h.391l2.3 3.9 2.3-3.9z" class="cls-1" transform="translate(-96.037 -71.378)"/>
                <path id="Path_1083" d="M140.512 82.292h-2.991l-.657 1.45h-.483l2.387-5.152h.483l2.416 5.152h-.483zm-.184-.387l-1.315-2.871-1.319 2.871z" class="cls-1" transform="translate(-103.116 -71.403)"/>
                <path id="Path_1084" d="M149.005 78.946h-1.865v-.406h4.19v.406h-1.841v4.746h-.483z" class="cls-1" transform="translate(-108.676 -71.378)"/>
                <path id="Path_1085" d="M158.39 78.54h.483v5.152h-.483z" class="cls-1" transform="translate(-114.489 -71.378)"/>
                <path id="Path_1086" d="M164.159 83.325a2.637 2.637 0 0 1-1.319-2.31 2.537 2.537 0 0 1 1.334-2.271 3 3 0 0 1 2.784 0 2.613 2.613 0 0 1 0 4.557 3 3 0 0 1-2.784 0zm2.547-.353a2.08 2.08 0 0 0 .817-.793 2.324 2.324 0 0 0 0-2.267 2.1 2.1 0 0 0-.817-.788 2.445 2.445 0 0 0-2.31 0 2.119 2.119 0 0 0-.807.793 2.286 2.286 0 0 0 0 2.262 2.119 2.119 0 0 0 .807.793 2.518 2.518 0 0 0 2.31 0z" class="cls-1" transform="translate(-116.788 -71.306)"/>
                <path id="Path_1087" d="M181.855 78.54v5.152h-.382L178 79.342v4.349h-.483V78.54h.387l3.46 4.349V78.54z" class="cls-1" transform="translate(-124.374 -71.378)"/>
                <path id="Path_1088" d="M196.175 78.946h-1.865v-.406h4.2v.406h-1.865v4.746h-.483z" class="cls-1" transform="translate(-133.05 -71.378)"/>
                <path id="Path_1089" d="M209.2 83.3v.391h-3.64V78.54h3.533v.406h-3.078v1.933h2.75v.391h-2.75v2.03z" class="cls-1" transform="translate(-138.863 -71.378)"/>
                <path id="Path_1090" d="M216.719 83.324a2.638 2.638 0 0 1-1.319-2.31 2.537 2.537 0 0 1 1.334-2.271 2.8 2.8 0 0 1 1.392-.343 2.862 2.862 0 0 1 1.063.184 2.165 2.165 0 0 1 .822.536l-.295.314a2.142 2.142 0 0 0-1.609-.6 2.331 2.331 0 0 0-1.16.29 2.118 2.118 0 0 0-.773.788 2.276 2.276 0 0 0 0 2.257 2.147 2.147 0 0 0 .812.8 2.33 2.33 0 0 0 1.16.285 2.136 2.136 0 0 0 1.58-.619l.295.3a2.326 2.326 0 0 1-.831.546 3.01 3.01 0 0 1-2.445-.155z" class="cls-1" transform="translate(-143.948 -71.305)"/>
                <path id="Path_1091" d="M228.18 78.54h.459v2.344h3.383V78.54h.483v5.152h-.483v-2.417h-3.383v2.416h-.459z" class="cls-1" transform="translate(-150.552 -71.378)"/>
                <path id="Path_1092" d="M246.031 78.54v5.152h-.387l-3.465-4.349v4.349h-.459V78.54h.387l3.455 4.349V78.54z" class="cls-1" transform="translate(-157.548 -71.378)"/>
                <path id="Path_1093" d="M255.438 83.324a2.63 2.63 0 0 1-.981-3.615 2.523 2.523 0 0 1 .967-.967 2.8 2.8 0 0 1 1.392-.343 2.775 2.775 0 0 1 1.387.343 2.523 2.523 0 0 1 .967.967 2.63 2.63 0 0 1-.981 3.615 2.824 2.824 0 0 1-1.387.343 2.855 2.855 0 0 1-1.364-.343zm2.547-.353a2.081 2.081 0 0 0 .817-.793 2.324 2.324 0 0 0 0-2.267 2.1 2.1 0 0 0-.817-.788 2.445 2.445 0 0 0-2.31 0 2.056 2.056 0 0 0-.807.793 2.285 2.285 0 0 0 0 2.262 2.056 2.056 0 0 0 .807.793 2.518 2.518 0 0 0 2.31 0z" class="cls-1" transform="translate(-163.945 -71.305)"/>
                <path id="Path_1094" d="M268.87 78.54h.459v4.76h2.987v.391h-3.426z" class="cls-1" transform="translate(-171.577 -71.378)"/>
                <path id="Path_1095" d="M278.589 83.325a2.637 2.637 0 0 1-1.319-2.31 2.537 2.537 0 0 1 1.334-2.271 3 3 0 0 1 2.784 0 2.613 2.613 0 0 1 0 4.557 3 3 0 0 1-2.784 0zm2.547-.353a2.081 2.081 0 0 0 .817-.793 2.324 2.324 0 0 0 0-2.267 2.1 2.1 0 0 0-.817-.788 2.445 2.445 0 0 0-2.31 0 2.118 2.118 0 0 0-.807.793 2.285 2.285 0 0 0 0 2.262 2.118 2.118 0 0 0 .807.793 2.518 2.518 0 0 0 2.31 0z" class="cls-1" transform="translate(-175.917 -71.306)"/>
                <path id="Path_1096" d="M294.99 81.058h.449v1.933a2.471 2.471 0 0 1-.841.483 3.188 3.188 0 0 1-1.034.169 2.946 2.946 0 0 1-1.421-.343 2.606 2.606 0 0 1 0-4.557 2.86 2.86 0 0 1 1.406-.343 2.985 2.985 0 0 1 1.083.184 2.164 2.164 0 0 1 .831.536l-.295.314a2.193 2.193 0 0 0-1.609-.623 2.378 2.378 0 0 0-1.174.29 2.1 2.1 0 0 0-.817.788 2.276 2.276 0 0 0 0 2.257 2.138 2.138 0 0 0 .822.8 2.417 2.417 0 0 0 1.179.285 2.278 2.278 0 0 0 1.45-.435z" class="cls-1" transform="translate(-182.909 -71.305)"/>
                <path id="Path_1097" d="M305.36 82v1.691h-.454V82l-2.146-3.46h.507l1.875 3.011 1.875-3.011h.483z" class="cls-1" transform="translate(-189.089 -71.378)"/>
            </g>
            <path id="Path_1098" d="M0 26.12h5.036q4.871 0 7.249 1.208a9.429 9.429 0 0 1 3.9 3.929 12.666 12.666 0 0 1 1.537 6.343 12.785 12.785 0 0 1-.86 4.746 9.852 9.852 0 0 1-2.363 3.6 8.329 8.329 0 0 1-3.267 1.972 23.036 23.036 0 0 1-6.1.546H0zm4.224 4.1v14.095H6.2a9.977 9.977 0 0 0 4.233-.667 5.061 5.061 0 0 0 2.132-2.248 8.254 8.254 0 0 0 .835-3.87 7.4 7.4 0 0 0-1.991-5.519q-1.788-1.769-5.756-1.764z" class="cls-2" transform="translate(0 -13.494)"/>
            <path id="Path_1099" d="M41.93 37.28h4.19v8.385a11.071 11.071 0 0 0 .319 3.228 2.807 2.807 0 0 0 1.029 1.4 2.9 2.9 0 0 0 1.745.483 3.033 3.033 0 0 0 1.754-.483 2.9 2.9 0 0 0 1.078-1.45 11.321 11.321 0 0 0 .255-3.053v-8.51h4.161v7.428a17.128 17.128 0 0 1-.681 5.925 6.443 6.443 0 0 1-2.46 2.982 7.531 7.531 0 0 1-4.132 1.039 7.312 7.312 0 0 1-4.4-1.213 6.4 6.4 0 0 1-2.363-3.383 20.586 20.586 0 0 1-.483-5.466z" class="cls-2" transform="translate(-21.666 -19.261)"/>
            <path id="Path_1100" d="M83.589 26v5.451H86.4v3.219h-2.811v8.73a1.975 1.975 0 0 0 .348 1.31 1.764 1.764 0 0 0 1.339.391 6.888 6.888 0 0 0 1.276-.116v3.33a9.121 9.121 0 0 1-2.658.391q-4.591.009-4.7-4.664V34.67H76.78v-3.219h2.42V26z" class="cls-2" transform="translate(-39.674 -13.432)"/>
            <path id="Path_1101" d="M117.821 41.173l-3.451 1.9a5.132 5.132 0 0 0-4.151-1.807 5.2 5.2 0 0 0-3.765 1.387A4.73 4.73 0 0 0 105 46.209a4.562 4.562 0 0 0 1.382 3.441 5.022 5.022 0 0 0 3.634 1.334 5.286 5.286 0 0 0 4.349-1.9l3.267 2.242a8.888 8.888 0 0 1-7.5 3.455 9.023 9.023 0 0 1-6.829-2.581 8.594 8.594 0 0 1 2.083-13.643 9.991 9.991 0 0 1 4.8-1.15 9.753 9.753 0 0 1 4.422.967 8.416 8.416 0 0 1 3.213 2.799z" class="cls-2" transform="translate(-52.096 -19.326)"/>
            <path id="Path_1102" d="M140.7 26h4.118v7.607a9.408 9.408 0 0 1 2.445-1.571 6.284 6.284 0 0 1 2.489-.522 5.6 5.6 0 0 1 4.142 1.7 5.907 5.907 0 0 1 1.45 4.349v10.924h-4.089v-7.249a18.219 18.219 0 0 0-.271-3.89 2.7 2.7 0 0 0-.957-1.537 2.616 2.616 0 0 0-1.629-.483 3.078 3.078 0 0 0-2.146.822A4.456 4.456 0 0 0 145 38.43a19.038 19.038 0 0 0-.179 3.383v6.65H140.7z" class="cls-2" transform="translate(-72.703 -13.432)"/>
            <path id="Path_1103" d="M171.92 37.41h4.224l4.175 10.173 4.166-10.173h4.2l-7.032 16.948h-2.692z" class="cls-1" transform="translate(-88.835 -19.328)"/>
            <path id="Path_1104" d="M212.708 24.2a2.541 2.541 0 0 1 1.87.793 2.633 2.633 0 0 1 .778 1.933 2.58 2.58 0 0 1-.773 1.89 2.5 2.5 0 0 1-1.846.783 2.538 2.538 0 0 1-1.885-.8 2.683 2.683 0 0 1 1.856-4.577zm-2.073 6.384h4.147v16.948h-4.147z" class="cls-1" transform="translate(-108.548 -12.502)"/>
            <path id="Path_1105" d="M242.624 47.293H229.3a4.44 4.44 0 0 0 1.542 2.8 4.834 4.834 0 0 0 3.2 1.044 5.519 5.519 0 0 0 4-1.629l3.494 1.643a8.294 8.294 0 0 1-3.132 2.74 9.751 9.751 0 0 1-4.349.889 8.588 8.588 0 0 1-6.331-2.455 8.334 8.334 0 0 1-2.445-6.142 8.622 8.622 0 0 1 2.416-6.283 8.182 8.182 0 0 1 6.147-2.494 8.482 8.482 0 0 1 6.35 2.5 9.053 9.053 0 0 1 2.445 6.6zm-4.146-3.267a4.158 4.158 0 0 0-1.624-2.247 4.662 4.662 0 0 0-2.8-.865 4.958 4.958 0 0 0-3.045.967 5.407 5.407 0 0 0-1.517 2.146z" class="cls-1" transform="translate(-116.403 -19.324)"/>
            <path id="Path_1106" d="M261.81 37.463h4.06l3.692 9.772 3.383-9.825h2.489l3.712 9.719 3.33-9.719h4.074l-6.036 16.948h-2.624l-3.528-9.414-3.629 9.419h-2.6z" class="cls-1" transform="translate(-135.284 -19.328)"/>
            <g id="Group_1685" opacity="0.8">
                <path id="Path_1107" d="M5.074 2.332c0 1.3-.976 2.126-2.542 2.126H1.353v1.614H0V.21h2.532c1.568 0 2.542.812 2.542 2.122zm-1.368 0c0-.643-.42-1.02-1.247-1.02H1.353v2.034H2.46c.826 0 1.247-.377 1.247-1.014z" class="cls-4" transform="translate(0 -.106)"/>
                <path id="Path_1108" d="M11.91 3.023A3.03 3.03 0 0 1 15.114 0a3.03 3.03 0 0 1 .242 6.055q-.121.005-.242 0a3.031 3.031 0 0 1-3.204-3.032zm5.036 0a1.784 1.784 0 0 0-1.693-1.869h-.138a1.783 1.783 0 0 0-1.833 1.732v.138A1.783 1.783 0 0 0 14.971 4.9h.143a1.788 1.788 0 0 0 1.833-1.742q.002-.069-.001-.135z" class="cls-4" transform="translate(-6.154 .005)"/>
                <path id="Path_1109" d="M35.186.21l-1.933 5.852H31.8L30.518 2.1l-1.329 3.962h-1.45L25.83.21h1.4l1.324 4.113L29.933.21h1.257l1.339 4.146L33.891.21z" class="cls-4" transform="translate(-13.347 -.106)"/>
                <path id="Path_1110" d="M51.3 4.975v1.087h-4.53V.21h4.422V1.3h-3.078v1.268h2.721v1.054h-2.721v1.353z" class="cls-4" transform="translate(-24.167 -.106)"/>
                <path id="Path_1111" d="M62.111 6.062l-1.131-1.6h-1.242v1.625H58.38V.21h2.532c1.566 0 2.547.812 2.547 2.122a1.933 1.933 0 0 1-1.208 1.851l1.315 1.88zm-1.271-4.75h-1.1v2.039h1.1c.826 0 1.247-.382 1.247-1.02s-.421-1.019-1.247-1.019z" class="cls-4" transform="translate(-30.166 -.106)"/>
                <path id="Path_1112" d="M75.633 4.975v1.087H71.1V.21h4.427V1.3h-3.079v1.268h2.716v1.054h-2.716v1.353z" class="cls-4" transform="translate(-36.739 -.106)"/>
                <path id="Path_1113" d="M82.72.21h2.658a2.91 2.91 0 0 1 3.228 2.924 2.924 2.924 0 0 1-3.228 2.929H82.72zm2.59 4.731a1.755 1.755 0 0 0 1.933-1.817 1.747 1.747 0 0 0-1.933-1.812h-1.237v3.629z" class="cls-4" transform="translate(-42.744 -.106)"/>
                <path id="Path_1114" d="M107.259 4.458c0 1.015-.8 1.6-2.339 1.6h-3.03V.21h2.861c1.45 0 2.218.609 2.218 1.522a1.411 1.411 0 0 1-.768 1.276 1.45 1.45 0 0 1 1.058 1.45zm-4.011-3.228v1.377h1.344c.662 0 1.025-.232 1.025-.691s-.362-.686-1.025-.686zm2.658 3.093c0-.483-.377-.725-1.078-.725h-1.58v1.45h1.595c.686-.005 1.063-.223 1.063-.725z" class="cls-4" transform="translate(-52.649 -.106)"/>
                <path id="Path_1115" d="M116.855 3.975v2.073H115.5V3.975L113.23.21h1.45l1.566 2.6L117.8.21h1.329z" class="cls-4" transform="translate(-58.509 -.106)"/>
            </g>
        </g>
    </g>
</svg>
