<svg xmlns="http://www.w3.org/2000/svg" width="48" height="48" viewBox="0 0 48 48">
    <g transform="translate(-590.367 11.854)">
        <circle cx="24" cy="24" r="24" fill="#4a4a4a" transform="translate(590.367 -11.854)"/>
        <g>
            <g>
                <path fill="#fff" d="M627.167 3.546a8.016 8.016 0 0 1-3 .9 5.572 5.572 0 0 0 2.3-3.1 11.568 11.568 0 0 1-3.4 1.4 5.1 5.1 0 0 0-3.8-1.8 5.5 5.5 0 0 0-5.3 5.7 5.7 5.7 0 0 0 .1 1.3 14.637 14.637 0 0 1-10.9-5.9 5.426 5.426 0 0 0-.7 2.9 5.688 5.688 0 0 0 2.3 4.7 4.815 4.815 0 0 1-2.4-.7v.1a5.73 5.73 0 0 0 4.2 5.6 5.9 5.9 0 0 1-1.4.2 3.4 3.4 0 0 1-1-.1 5.2 5.2 0 0 0 4.9 3.9 10.212 10.212 0 0 1-6.5 2.4 6.151 6.151 0 0 1-1.3-.1 14.207 14.207 0 0 0 8.1 2.6c9.7 0 15-8.6 15-16.1v-.7a11.947 11.947 0 0 0 2.8-3.2z"/>
            </g>
        </g>
    </g>
</svg>
